<?xml version="1.0" encoding="UTF-8" standalone="no"?><svg xmlns="http://www.w3.org/2000/svg" xmlns:xlink="http://www.w3.org/1999/xlink" contentStyleType="text/css" height="598px" preserveAspectRatio="none" style="width:2870px;height:598px;background:#FFFFFF;" version="1.1" viewBox="0 0 2870 598" width="2870px" zoomAndPan="magnify"><defs/><g><rect fill="none" height="26.2969" id="_title" style="stroke:none;stroke-width:1.0;" width="15" x="1420.75" y="5"/><text fill="#000000" font-family="sans-serif" font-size="14" font-weight="bold" lengthAdjust="spacing" textLength="5" x="1425.75" y="22.9951"> </text><!--MD5=[9e8cdc57c56bad5cdfc47653c9df3022]
class VehicleType--><g id="elem_VehicleType"><rect codeLine="15" fill="#A9DCDF" height="119.125" id="VehicleType" rx="2.5" ry="2.5" style="stroke:#000000;stroke-width:0.5;" width="446" x="383" y="44.2969"/><ellipse cx="540.25" cy="60.9375" fill="#A9DCDF" rx="11" ry="11" style="stroke:#181818;stroke-width:1.0;"/><path d="M540.3594,56.2813 L539.2031,61.3594 L541.5313,61.3594 L540.3594,56.2813 Z M538.875,54.0469 L541.8594,54.0469 L545.2188,66.4375 L542.7656,66.4375 L542,63.375 L538.7188,63.375 L537.9688,66.4375 L535.5313,66.4375 L538.875,54.0469 Z " fill="#000000"/><text fill="#000000" font-family="sans-serif" font-size="20" font-style="italic" lengthAdjust="spacing" textLength="123" x="560.75" y="67.8613">VehicleType</text><line style="stroke:#000000;stroke-width:0.5;" x1="384" x2="828" y1="77.5781" y2="77.5781"/><rect fill="none" height="6" style="stroke:#C82930;stroke-width:1.0;" width="6" x="391" y="91.7188"/><text fill="#000000" font-family="sans-serif" font-size="20" lengthAdjust="spacing" textLength="212" x="403" y="100.1426">vehicleTypeId: String</text><line style="stroke:#000000;stroke-width:0.5;" x1="384" x2="828" y1="108.8594" y2="108.8594"/><ellipse cx="394" cy="126" fill="#84BE84" rx="3" ry="3" style="stroke:#038048;stroke-width:1.0;"/><text fill="#000000" font-family="sans-serif" font-size="20" lengthAdjust="spacing" textLength="264" x="403" y="131.4238">getVehicleTypeId(): String</text><ellipse cx="394" cy="149.2813" fill="#84BE84" rx="3" ry="3" style="stroke:#038048;stroke-width:1.0;"/><text fill="#000000" font-family="sans-serif" font-size="20" lengthAdjust="spacing" textLength="420" x="403" y="154.7051">getVehicleDetails(): Map&lt;String, Object&gt;</text></g><g id="elem_GMN3"><path d="M864.5,53.2969 L864.5,99.7969 L829.36,103.7969 L864.5,107.7969 L864.5,154.0938 A0,0 0 0 0 864.5,154.0938 L1225.5,154.0938 A0,0 0 0 0 1225.5,154.0938 L1225.5,63.2969 L1215.5,53.2969 L864.5,53.2969 A0,0 0 0 0 864.5,53.2969 " fill="#FEFFDD" style="stroke:#181818;stroke-width:0.5;"/><path d="M1215.5,53.2969 L1215.5,63.2969 L1225.5,63.2969 L1215.5,53.2969 " fill="#FEFFDD" style="stroke:#181818;stroke-width:0.5;"/><text fill="#000000" font-family="sans-serif" font-size="13" lengthAdjust="spacing" textLength="153" x="870.5" y="70.3638">Within the Vehicle class,</text><text fill="#000000" font-family="sans-serif" font-size="13" lengthAdjust="spacing" textLength="313" x="870.5" y="85.4966">there is an instance variable named VehicleType,</text><text fill="#000000" font-family="sans-serif" font-size="13" lengthAdjust="spacing" textLength="259" x="870.5" y="100.6294">and it should be of the type VehicleType.</text><text fill="#000000" font-family="sans-serif" font-size="13" lengthAdjust="spacing" textLength="328" x="870.5" y="115.7622">The actual implementation of the VehicleType class</text><text fill="#000000" font-family="sans-serif" font-size="13" lengthAdjust="spacing" textLength="296" x="870.5" y="130.895">would contain details about the properties and</text><text fill="#000000" font-family="sans-serif" font-size="13" lengthAdjust="spacing" textLength="340" x="870.5" y="146.0278">methods associated with representing a vehicle type.</text></g><!--MD5=[b1f788f6933bd6feedbe6f2f9e137947]
class Bike--><g id="elem_Bike"><rect codeLine="23" fill="#FFFFFF" height="95.8438" id="Bike" rx="2.5" ry="2.5" style="stroke:#000000;stroke-width:0.5;" width="272" x="149" y="234.7969"/><ellipse cx="258.75" cy="251.4375" fill="#ADD1B2" rx="11" ry="11" style="stroke:#181818;stroke-width:1.0;"/><path d="M261.7188,257.0781 Q261.1406,257.375 260.5,257.5156 Q259.8594,257.6719 259.1563,257.6719 Q256.6563,257.6719 255.3281,256.0313 Q254.0156,254.375 254.0156,251.25 Q254.0156,248.125 255.3281,246.4688 Q256.6563,244.8125 259.1563,244.8125 Q259.8594,244.8125 260.5,244.9688 Q261.1563,245.125 261.7188,245.4219 L261.7188,248.1406 Q261.0938,247.5625 260.5,247.2969 Q259.9063,247.0156 259.2813,247.0156 Q257.9375,247.0156 257.25,248.0938 Q256.5625,249.1563 256.5625,251.25 Q256.5625,253.3438 257.25,254.4219 Q257.9375,255.4844 259.2813,255.4844 Q259.9063,255.4844 260.5,255.2188 Q261.0938,254.9375 261.7188,254.3594 L261.7188,257.0781 Z " fill="#000000"/><text fill="#000000" font-family="sans-serif" font-size="20" lengthAdjust="spacing" textLength="44" x="279.25" y="258.3613">Bike</text><line style="stroke:#000000;stroke-width:0.5;" x1="150" x2="420" y1="268.0781" y2="268.0781"/><rect fill="none" height="6" style="stroke:#C82930;stroke-width:1.0;" width="6" x="157" y="282.2188"/><text fill="#000000" font-family="sans-serif" font-size="20" lengthAdjust="spacing" textLength="196" x="169" y="290.6426">bikeSpecific: String</text><line style="stroke:#000000;stroke-width:0.5;" x1="150" x2="420" y1="299.3594" y2="299.3594"/><ellipse cx="160" cy="316.5" fill="#84BE84" rx="3" ry="3" style="stroke:#038048;stroke-width:1.0;"/><text fill="#000000" font-family="sans-serif" font-size="20" lengthAdjust="spacing" textLength="246" x="169" y="321.9238">getBikeSpecific(): String</text></g><!--MD5=[20019aacff9bedd81601430d9d5b4149]
class Moped--><g id="elem_Moped"><rect codeLine="28" fill="#FFFFFF" height="95.8438" id="Moped" rx="2.5" ry="2.5" style="stroke:#000000;stroke-width:0.5;" width="299" x="456.5" y="234.7969"/><ellipse cx="568.25" cy="251.4375" fill="#ADD1B2" rx="11" ry="11" style="stroke:#181818;stroke-width:1.0;"/><path d="M571.2188,257.0781 Q570.6406,257.375 570,257.5156 Q569.3594,257.6719 568.6563,257.6719 Q566.1563,257.6719 564.8281,256.0313 Q563.5156,254.375 563.5156,251.25 Q563.5156,248.125 564.8281,246.4688 Q566.1563,244.8125 568.6563,244.8125 Q569.3594,244.8125 570,244.9688 Q570.6563,245.125 571.2188,245.4219 L571.2188,248.1406 Q570.5938,247.5625 570,247.2969 Q569.4063,247.0156 568.7813,247.0156 Q567.4375,247.0156 566.75,248.0938 Q566.0625,249.1563 566.0625,251.25 Q566.0625,253.3438 566.75,254.4219 Q567.4375,255.4844 568.7813,255.4844 Q569.4063,255.4844 570,255.2188 Q570.5938,254.9375 571.2188,254.3594 L571.2188,257.0781 Z " fill="#000000"/><text fill="#000000" font-family="sans-serif" font-size="20" lengthAdjust="spacing" textLength="67" x="588.75" y="258.3613">Moped</text><line style="stroke:#000000;stroke-width:0.5;" x1="457.5" x2="754.5" y1="268.0781" y2="268.0781"/><rect fill="none" height="6" style="stroke:#C82930;stroke-width:1.0;" width="6" x="464.5" y="282.2188"/><text fill="#000000" font-family="sans-serif" font-size="20" lengthAdjust="spacing" textLength="223" x="476.5" y="290.6426">bicycleSpecific: String</text><line style="stroke:#000000;stroke-width:0.5;" x1="457.5" x2="754.5" y1="299.3594" y2="299.3594"/><ellipse cx="467.5" cy="316.5" fill="#84BE84" rx="3" ry="3" style="stroke:#038048;stroke-width:1.0;"/><text fill="#000000" font-family="sans-serif" font-size="20" lengthAdjust="spacing" textLength="273" x="476.5" y="321.9238">getBicycleSpecific(): String</text></g><!--MD5=[0045945e9821740a5ca569af52df98bf]
class Bicycle--><g id="elem_Bicycle"><rect codeLine="33" fill="#FFFFFF" height="95.8438" id="Bicycle" rx="2.5" ry="2.5" style="stroke:#000000;stroke-width:0.5;" width="299" x="790.5" y="234.7969"/><ellipse cx="900.25" cy="251.4375" fill="#ADD1B2" rx="11" ry="11" style="stroke:#181818;stroke-width:1.0;"/><path d="M903.2188,257.0781 Q902.6406,257.375 902,257.5156 Q901.3594,257.6719 900.6563,257.6719 Q898.1563,257.6719 896.8281,256.0313 Q895.5156,254.375 895.5156,251.25 Q895.5156,248.125 896.8281,246.4688 Q898.1563,244.8125 900.6563,244.8125 Q901.3594,244.8125 902,244.9688 Q902.6563,245.125 903.2188,245.4219 L903.2188,248.1406 Q902.5938,247.5625 902,247.2969 Q901.4063,247.0156 900.7813,247.0156 Q899.4375,247.0156 898.75,248.0938 Q898.0625,249.1563 898.0625,251.25 Q898.0625,253.3438 898.75,254.4219 Q899.4375,255.4844 900.7813,255.4844 Q901.4063,255.4844 902,255.2188 Q902.5938,254.9375 903.2188,254.3594 L903.2188,257.0781 Z " fill="#000000"/><text fill="#000000" font-family="sans-serif" font-size="20" lengthAdjust="spacing" textLength="71" x="920.75" y="258.3613">Bicycle</text><line style="stroke:#000000;stroke-width:0.5;" x1="791.5" x2="1088.5" y1="268.0781" y2="268.0781"/><rect fill="none" height="6" style="stroke:#C82930;stroke-width:1.0;" width="6" x="798.5" y="282.2188"/><text fill="#000000" font-family="sans-serif" font-size="20" lengthAdjust="spacing" textLength="223" x="810.5" y="290.6426">bicycleSpecific: String</text><line style="stroke:#000000;stroke-width:0.5;" x1="791.5" x2="1088.5" y1="299.3594" y2="299.3594"/><ellipse cx="801.5" cy="316.5" fill="#84BE84" rx="3" ry="3" style="stroke:#038048;stroke-width:1.0;"/><text fill="#000000" font-family="sans-serif" font-size="20" lengthAdjust="spacing" textLength="273" x="810.5" y="321.9238">getBicycleSpecific(): String</text></g><!--MD5=[f6c77495e12a05eb94081b0ac09e8b1a]
class PaymentMethod--><g id="elem_PaymentMethod"><rect codeLine="38" fill="#A9DCDF" height="119.125" id="PaymentMethod" rx="2.5" ry="2.5" style="stroke:#000000;stroke-width:0.5;" width="439" x="1239.5" y="223.2969"/><ellipse cx="1372.75" cy="239.9375" fill="#A9DCDF" rx="11" ry="11" style="stroke:#181818;stroke-width:1.0;"/><path d="M1372.8594,235.2813 L1371.7031,240.3594 L1374.0313,240.3594 L1372.8594,235.2813 Z M1371.375,233.0469 L1374.3594,233.0469 L1377.7188,245.4375 L1375.2656,245.4375 L1374.5,242.375 L1371.2188,242.375 L1370.4688,245.4375 L1368.0313,245.4375 L1371.375,233.0469 Z " fill="#000000"/><text fill="#000000" font-family="sans-serif" font-size="20" font-style="italic" lengthAdjust="spacing" textLength="164" x="1393.25" y="246.8613">PaymentMethod</text><line style="stroke:#000000;stroke-width:0.5;" x1="1240.5" x2="1677.5" y1="256.5781" y2="256.5781"/><polygon fill="none" points="1250.5,268.7188,1254.5,272.7188,1250.5,276.7188,1246.5,272.7188" style="stroke:#B38D22;stroke-width:1.0;"/><text fill="#000000" font-family="sans-serif" font-size="20" lengthAdjust="spacing" textLength="173" x="1259.5" y="279.1426">accountId: String</text><polygon fill="none" points="1250.5,292,1254.5,296,1250.5,300,1246.5,296" style="stroke:#B38D22;stroke-width:1.0;"/><text fill="#000000" font-family="sans-serif" font-size="20" lengthAdjust="spacing" textLength="279" x="1259.5" y="302.4238">accountHolderName: String</text><line style="stroke:#000000;stroke-width:0.5;" x1="1240.5" x2="1677.5" y1="311.1406" y2="311.1406"/><ellipse cx="1250.5" cy="328.2813" fill="#84BE84" rx="3" ry="3" style="stroke:#038048;stroke-width:1.0;"/><text fill="#000000" font-family="sans-serif" font-size="20" lengthAdjust="spacing" textLength="413" x="1259.5" y="333.7051">makePayment(amount: double): boolean</text></g><g id="elem_GMN13"><path d="M1261,53.2969 L1261,154.0938 A0,0 0 0 0 1261,154.0938 L1455,154.0938 L1459,222.9969 L1463,154.0938 L1657,154.0938 A0,0 0 0 0 1657,154.0938 L1657,63.2969 L1647,53.2969 L1261,53.2969 A0,0 0 0 0 1261,53.2969 " fill="#FEFFDD" style="stroke:#181818;stroke-width:0.5;"/><path d="M1647,53.2969 L1647,63.2969 L1657,63.2969 L1647,53.2969 " fill="#FEFFDD" style="stroke:#181818;stroke-width:0.5;"/><text fill="#000000" font-family="sans-serif" font-size="13" lengthAdjust="spacing" textLength="249" x="1267" y="70.3638">Within the PaymentManagement class,</text><text fill="#000000" font-family="sans-serif" font-size="13" lengthAdjust="spacing" textLength="342" x="1267" y="85.4966">there is an instance variable named paymentMethod,</text><text fill="#000000" font-family="sans-serif" font-size="13" lengthAdjust="spacing" textLength="288" x="1267" y="100.6294">and it should be of the type PaymentMethod.</text><text fill="#000000" font-family="sans-serif" font-size="13" lengthAdjust="spacing" textLength="357" x="1267" y="115.7622">The actual implementation of the PaymentMethod class</text><text fill="#000000" font-family="sans-serif" font-size="13" lengthAdjust="spacing" textLength="296" x="1267" y="130.895">would contain details about the properties and</text><text fill="#000000" font-family="sans-serif" font-size="13" lengthAdjust="spacing" textLength="375" x="1267" y="146.0278">methods associated with representing a payment method.</text></g><!--MD5=[7cd16c3012f288e72ef641a29bb0fd67]
class InAppWalletPayment--><g id="elem_InAppWalletPayment"><rect codeLine="46" fill="#FFFFFF" height="119.125" id="InAppWalletPayment" rx="2.5" ry="2.5" style="stroke:#000000;stroke-width:0.5;" width="486" x="7" y="413.7969"/><ellipse cx="140.25" cy="430.4375" fill="#ADD1B2" rx="11" ry="11" style="stroke:#181818;stroke-width:1.0;"/><path d="M143.2188,436.0781 Q142.6406,436.375 142,436.5156 Q141.3594,436.6719 140.6563,436.6719 Q138.1563,436.6719 136.8281,435.0313 Q135.5156,433.375 135.5156,430.25 Q135.5156,427.125 136.8281,425.4688 Q138.1563,423.8125 140.6563,423.8125 Q141.3594,423.8125 142,423.9688 Q142.6563,424.125 143.2188,424.4219 L143.2188,427.1406 Q142.5938,426.5625 142,426.2969 Q141.4063,426.0156 140.7813,426.0156 Q139.4375,426.0156 138.75,427.0938 Q138.0625,428.1563 138.0625,430.25 Q138.0625,432.3438 138.75,433.4219 Q139.4375,434.4844 140.7813,434.4844 Q141.4063,434.4844 142,434.2188 Q142.5938,433.9375 143.2188,433.3594 L143.2188,436.0781 Z " fill="#000000"/><text fill="#000000" font-family="sans-serif" font-size="20" lengthAdjust="spacing" textLength="211" x="160.75" y="437.3613">InAppWalletPayment</text><line style="stroke:#000000;stroke-width:0.5;" x1="8" x2="492" y1="447.0781" y2="447.0781"/><line style="stroke:#000000;stroke-width:0.5;" x1="8" x2="492" y1="455.0781" y2="455.0781"/><rect fill="#F24D5C" height="6" style="stroke:#C82930;stroke-width:1.0;" width="6" x="15" y="469.2188"/><text fill="#000000" font-family="sans-serif" font-size="20" lengthAdjust="spacing" textLength="460" x="27" y="477.6426">addMoneyToWallet(amount: double): boolean</text><ellipse cx="18" cy="495.5" fill="#84BE84" rx="3" ry="3" style="stroke:#038048;stroke-width:1.0;"/><text fill="#000000" font-family="sans-serif" font-size="20" lengthAdjust="spacing" textLength="413" x="27" y="500.9238">makePayment(amount: double): boolean</text><rect fill="#F24D5C" height="6" style="stroke:#C82930;stroke-width:1.0;" width="6" x="15" y="515.7813"/><text fill="#000000" font-family="sans-serif" font-size="20" lengthAdjust="spacing" textLength="289" x="27" y="524.2051">enableAutoDeduction(): void</text></g><!--MD5=[8d9a92c498e6ccb027eba1da7979d6d9]
class UPIPayment--><g id="elem_UPIPayment"><rect codeLine="52" fill="#FFFFFF" height="95.8438" id="UPIPayment" rx="2.5" ry="2.5" style="stroke:#000000;stroke-width:0.5;" width="439" x="528.5" y="425.2969"/><ellipse cx="683.25" cy="441.9375" fill="#ADD1B2" rx="11" ry="11" style="stroke:#181818;stroke-width:1.0;"/><path d="M686.2188,447.5781 Q685.6406,447.875 685,448.0156 Q684.3594,448.1719 683.6563,448.1719 Q681.1563,448.1719 679.8281,446.5313 Q678.5156,444.875 678.5156,441.75 Q678.5156,438.625 679.8281,436.9688 Q681.1563,435.3125 683.6563,435.3125 Q684.3594,435.3125 685,435.4688 Q685.6563,435.625 686.2188,435.9219 L686.2188,438.6406 Q685.5938,438.0625 685,437.7969 Q684.4063,437.5156 683.7813,437.5156 Q682.4375,437.5156 681.75,438.5938 Q681.0625,439.6563 681.0625,441.75 Q681.0625,443.8438 681.75,444.9219 Q682.4375,445.9844 683.7813,445.9844 Q684.4063,445.9844 685,445.7188 Q685.5938,445.4375 686.2188,444.8594 L686.2188,447.5781 Z " fill="#000000"/><text fill="#000000" font-family="sans-serif" font-size="20" lengthAdjust="spacing" textLength="121" x="703.75" y="448.8613">UPIPayment</text><line style="stroke:#000000;stroke-width:0.5;" x1="529.5" x2="966.5" y1="458.5781" y2="458.5781"/><polygon fill="none" points="539.5,470.7188,543.5,474.7188,539.5,478.7188,535.5,474.7188" style="stroke:#B38D22;stroke-width:1.0;"/><text fill="#000000" font-family="sans-serif" font-size="20" lengthAdjust="spacing" textLength="125" x="548.5" y="481.1426">upiId: String</text><line style="stroke:#000000;stroke-width:0.5;" x1="529.5" x2="966.5" y1="489.8594" y2="489.8594"/><ellipse cx="539.5" cy="507" fill="#84BE84" rx="3" ry="3" style="stroke:#038048;stroke-width:1.0;"/><text fill="#000000" font-family="sans-serif" font-size="20" lengthAdjust="spacing" textLength="413" x="548.5" y="512.4238">makePayment(amount: double): boolean</text></g><!--MD5=[5213af0feef2264e577ccf2e3fd4a785]
class CardPayment--><g id="elem_CardPayment"><rect codeLine="57" fill="#FFFFFF" height="142.4063" id="CardPayment" rx="2.5" ry="2.5" style="stroke:#000000;stroke-width:0.5;" width="439" x="1002.5" y="402.2969"/><ellipse cx="1150.25" cy="418.9375" fill="#ADD1B2" rx="11" ry="11" style="stroke:#181818;stroke-width:1.0;"/><path d="M1153.2188,424.5781 Q1152.6406,424.875 1152,425.0156 Q1151.3594,425.1719 1150.6563,425.1719 Q1148.1563,425.1719 1146.8281,423.5313 Q1145.5156,421.875 1145.5156,418.75 Q1145.5156,415.625 1146.8281,413.9688 Q1148.1563,412.3125 1150.6563,412.3125 Q1151.3594,412.3125 1152,412.4688 Q1152.6563,412.625 1153.2188,412.9219 L1153.2188,415.6406 Q1152.5938,415.0625 1152,414.7969 Q1151.4063,414.5156 1150.7813,414.5156 Q1149.4375,414.5156 1148.75,415.5938 Q1148.0625,416.6563 1148.0625,418.75 Q1148.0625,420.8438 1148.75,421.9219 Q1149.4375,422.9844 1150.7813,422.9844 Q1151.4063,422.9844 1152,422.7188 Q1152.5938,422.4375 1153.2188,421.8594 L1153.2188,424.5781 Z " fill="#000000"/><text fill="#000000" font-family="sans-serif" font-size="20" lengthAdjust="spacing" textLength="135" x="1170.75" y="425.8613">CardPayment</text><line style="stroke:#000000;stroke-width:0.5;" x1="1003.5" x2="1440.5" y1="435.5781" y2="435.5781"/><polygon fill="none" points="1013.5,447.7188,1017.5,451.7188,1013.5,455.7188,1009.5,451.7188" style="stroke:#B38D22;stroke-width:1.0;"/><text fill="#000000" font-family="sans-serif" font-size="20" lengthAdjust="spacing" textLength="199" x="1022.5" y="458.1426">cardNumber: String</text><polygon fill="none" points="1013.5,471,1017.5,475,1013.5,479,1009.5,475" style="stroke:#B38D22;stroke-width:1.0;"/><text fill="#000000" font-family="sans-serif" font-size="20" lengthAdjust="spacing" textLength="182" x="1022.5" y="481.4238">expiryDate: String</text><polygon fill="none" points="1013.5,494.2813,1017.5,498.2813,1013.5,502.2813,1009.5,498.2813" style="stroke:#B38D22;stroke-width:1.0;"/><text fill="#000000" font-family="sans-serif" font-size="20" lengthAdjust="spacing" textLength="107" x="1022.5" y="504.7051">cvv: String</text><line style="stroke:#000000;stroke-width:0.5;" x1="1003.5" x2="1440.5" y1="513.4219" y2="513.4219"/><ellipse cx="1013.5" cy="530.5625" fill="#84BE84" rx="3" ry="3" style="stroke:#038048;stroke-width:1.0;"/><text fill="#000000" font-family="sans-serif" font-size="20" lengthAdjust="spacing" textLength="413" x="1022.5" y="535.9863">makePayment(amount: double): boolean</text></g><!--MD5=[b9d146c8f6c5cf807b5309df8391ba98]
class InternetBanking--><g id="elem_InternetBanking"><rect codeLine="64" fill="#FFFFFF" height="95.8438" id="InternetBanking" rx="2.5" ry="2.5" style="stroke:#000000;stroke-width:0.5;" width="439" x="1476.5" y="425.2969"/><ellipse cx="1610.25" cy="441.9375" fill="#ADD1B2" rx="11" ry="11" style="stroke:#181818;stroke-width:1.0;"/><path d="M1613.2188,447.5781 Q1612.6406,447.875 1612,448.0156 Q1611.3594,448.1719 1610.6563,448.1719 Q1608.1563,448.1719 1606.8281,446.5313 Q1605.5156,444.875 1605.5156,441.75 Q1605.5156,438.625 1606.8281,436.9688 Q1608.1563,435.3125 1610.6563,435.3125 Q1611.3594,435.3125 1612,435.4688 Q1612.6563,435.625 1613.2188,435.9219 L1613.2188,438.6406 Q1612.5938,438.0625 1612,437.7969 Q1611.4063,437.5156 1610.7813,437.5156 Q1609.4375,437.5156 1608.75,438.5938 Q1608.0625,439.6563 1608.0625,441.75 Q1608.0625,443.8438 1608.75,444.9219 Q1609.4375,445.9844 1610.7813,445.9844 Q1611.4063,445.9844 1612,445.7188 Q1612.5938,445.4375 1613.2188,444.8594 L1613.2188,447.5781 Z " fill="#000000"/><text fill="#000000" font-family="sans-serif" font-size="20" lengthAdjust="spacing" textLength="163" x="1630.75" y="448.8613">InternetBanking</text><line style="stroke:#000000;stroke-width:0.5;" x1="1477.5" x2="1914.5" y1="458.5781" y2="458.5781"/><polygon fill="none" points="1487.5,470.7188,1491.5,474.7188,1487.5,478.7188,1483.5,474.7188" style="stroke:#B38D22;stroke-width:1.0;"/><text fill="#000000" font-family="sans-serif" font-size="20" lengthAdjust="spacing" textLength="183" x="1496.5" y="481.1426">bankName: String</text><line style="stroke:#000000;stroke-width:0.5;" x1="1477.5" x2="1914.5" y1="489.8594" y2="489.8594"/><ellipse cx="1487.5" cy="507" fill="#84BE84" rx="3" ry="3" style="stroke:#038048;stroke-width:1.0;"/><text fill="#000000" font-family="sans-serif" font-size="20" lengthAdjust="spacing" textLength="413" x="1496.5" y="512.4238">makePayment(amount: double): boolean</text></g><!--MD5=[301c7f661769eeef372f8892e43540d3]
class DeductFromSalary--><g id="elem_DeductFromSalary"><rect codeLine="69" fill="#FFFFFF" height="95.8438" id="DeductFromSalary" rx="2.5" ry="2.5" style="stroke:#000000;stroke-width:0.5;" width="439" x="1950.5" y="425.2969"/><ellipse cx="2072.75" cy="441.9375" fill="#ADD1B2" rx="11" ry="11" style="stroke:#181818;stroke-width:1.0;"/><path d="M2075.7188,447.5781 Q2075.1406,447.875 2074.5,448.0156 Q2073.8594,448.1719 2073.1563,448.1719 Q2070.6563,448.1719 2069.3281,446.5313 Q2068.0156,444.875 2068.0156,441.75 Q2068.0156,438.625 2069.3281,436.9688 Q2070.6563,435.3125 2073.1563,435.3125 Q2073.8594,435.3125 2074.5,435.4688 Q2075.1563,435.625 2075.7188,435.9219 L2075.7188,438.6406 Q2075.0938,438.0625 2074.5,437.7969 Q2073.9063,437.5156 2073.2813,437.5156 Q2071.9375,437.5156 2071.25,438.5938 Q2070.5625,439.6563 2070.5625,441.75 Q2070.5625,443.8438 2071.25,444.9219 Q2071.9375,445.9844 2073.2813,445.9844 Q2073.9063,445.9844 2074.5,445.7188 Q2075.0938,445.4375 2075.7188,444.8594 L2075.7188,447.5781 Z " fill="#000000"/><text fill="#000000" font-family="sans-serif" font-size="20" lengthAdjust="spacing" textLength="186" x="2093.25" y="448.8613">DeductFromSalary</text><line style="stroke:#000000;stroke-width:0.5;" x1="1951.5" x2="2388.5" y1="458.5781" y2="458.5781"/><polygon fill="none" points="1961.5,470.7188,1965.5,474.7188,1961.5,478.7188,1957.5,474.7188" style="stroke:#B38D22;stroke-width:1.0;"/><text fill="#000000" font-family="sans-serif" font-size="20" lengthAdjust="spacing" textLength="157" x="1970.5" y="481.1426">employeeId: int</text><line style="stroke:#000000;stroke-width:0.5;" x1="1951.5" x2="2388.5" y1="489.8594" y2="489.8594"/><ellipse cx="1961.5" cy="507" fill="#84BE84" rx="3" ry="3" style="stroke:#038048;stroke-width:1.0;"/><text fill="#000000" font-family="sans-serif" font-size="20" lengthAdjust="spacing" textLength="413" x="1970.5" y="512.4238">makePayment(amount: double): boolean</text></g><!--MD5=[80216d534aa4b3baf4d88cfd96929b52]
class FromStudentFee--><g id="elem_FromStudentFee"><rect codeLine="74" fill="#FFFFFF" height="95.8438" id="FromStudentFee" rx="2.5" ry="2.5" style="stroke:#000000;stroke-width:0.5;" width="439" x="2424.5" y="425.2969"/><ellipse cx="2555.75" cy="441.9375" fill="#ADD1B2" rx="11" ry="11" style="stroke:#181818;stroke-width:1.0;"/><path d="M2558.7188,447.5781 Q2558.1406,447.875 2557.5,448.0156 Q2556.8594,448.1719 2556.1563,448.1719 Q2553.6563,448.1719 2552.3281,446.5313 Q2551.0156,444.875 2551.0156,441.75 Q2551.0156,438.625 2552.3281,436.9688 Q2553.6563,435.3125 2556.1563,435.3125 Q2556.8594,435.3125 2557.5,435.4688 Q2558.1563,435.625 2558.7188,435.9219 L2558.7188,438.6406 Q2558.0938,438.0625 2557.5,437.7969 Q2556.9063,437.5156 2556.2813,437.5156 Q2554.9375,437.5156 2554.25,438.5938 Q2553.5625,439.6563 2553.5625,441.75 Q2553.5625,443.8438 2554.25,444.9219 Q2554.9375,445.9844 2556.2813,445.9844 Q2556.9063,445.9844 2557.5,445.7188 Q2558.0938,445.4375 2558.7188,444.8594 L2558.7188,447.5781 Z " fill="#000000"/><text fill="#000000" font-family="sans-serif" font-size="20" lengthAdjust="spacing" textLength="168" x="2576.25" y="448.8613">FromStudentFee</text><line style="stroke:#000000;stroke-width:0.5;" x1="2425.5" x2="2862.5" y1="458.5781" y2="458.5781"/><polygon fill="none" points="2435.5,470.7188,2439.5,474.7188,2435.5,478.7188,2431.5,474.7188" style="stroke:#B38D22;stroke-width:1.0;"/><text fill="#000000" font-family="sans-serif" font-size="20" lengthAdjust="spacing" textLength="136" x="2444.5" y="481.1426">studentId: int</text><line style="stroke:#000000;stroke-width:0.5;" x1="2425.5" x2="2862.5" y1="489.8594" y2="489.8594"/><ellipse cx="2435.5" cy="507" fill="#84BE84" rx="3" ry="3" style="stroke:#038048;stroke-width:1.0;"/><text fill="#000000" font-family="sans-serif" font-size="20" lengthAdjust="spacing" textLength="413" x="2444.5" y="512.4238">makePayment(amount: double): boolean</text></g><!--MD5=[20202ea8a13fadff83c6d76b043fb708]
reverse link VehicleType to Bike--><g id="link_VehicleType_Bike"><path d="M481.81,173.2769 C444.54,193.8269 404.52,215.8869 370.37,234.7269 " fill="none" id="VehicleType-backto-Bike" style="stroke:#000000;stroke-width:1.0;"/><polygon fill="none" points="478.66,167.0169,499.56,163.4869,485.42,179.2769,478.66,167.0169" style="stroke:#000000;stroke-width:1.0;"/></g><!--MD5=[36bafd065b8f2c812512b4c08e7f6f0f]
reverse link VehicleType to Moped--><g id="link_VehicleType_Moped"><path d="M606,184.0069 C606,201.2669 606,219.0169 606,234.5669 " fill="none" id="VehicleType-backto-Moped" style="stroke:#000000;stroke-width:1.0;"/><polygon fill="none" points="599,183.7369,606,163.7369,613,183.7369,599,183.7369" style="stroke:#000000;stroke-width:1.0;"/></g><!--MD5=[668dc868701711b91058632fc2b67af0]
reverse link VehicleType to Bicycle--><g id="link_VehicleType_Bicycle"><path d="M734.43,172.8569 C773.43,193.5269 815.39,215.7669 851.18,234.7269 " fill="none" id="VehicleType-backto-Bicycle" style="stroke:#000000;stroke-width:1.0;"/><polygon fill="none" points="731.15,179.0369,716.75,163.4869,737.7,166.6669,731.15,179.0369" style="stroke:#000000;stroke-width:1.0;"/></g><!--MD5=[42e2d89553aec218a846145f49bf5830]
reverse link PaymentMethod to InAppWalletPayment--><g id="link_PaymentMethod_InAppWalletPayment"><path codeLine="79" d="M1219.33,325.7469 C1181.79,331.7069 1143.39,337.4469 1107,342.2969 C843.11,377.4669 772.87,354.3269 511,402.2969 C493,405.5969 474.43,409.5069 455.88,413.7869 " fill="none" id="PaymentMethod-backto-InAppWalletPayment" style="stroke:#000000;stroke-width:1.0;"/><polygon fill="none" points="1218.31,318.8269,1239.17,322.5669,1220.53,332.6469,1218.31,318.8269" style="stroke:#000000;stroke-width:1.0;"/></g><!--MD5=[431a58b4ce82b49064f74384eef2b3ec]
reverse link PaymentMethod to UPIPayment--><g id="link_PaymentMethod_UPIPayment"><path codeLine="80" d="M1219.85,341.4969 C1144.53,360.2269 1061.13,381.5469 985,402.2969 C958.72,409.4569 930.89,417.3769 903.9,425.2369 " fill="none" id="PaymentMethod-backto-UPIPayment" style="stroke:#000000;stroke-width:1.0;"/><polygon fill="none" points="1218.23,334.6869,1239.33,336.6669,1221.6,348.2769,1218.23,334.6869" style="stroke:#000000;stroke-width:1.0;"/></g><!--MD5=[1fc705b995dc56d7ec508bb93aca3cdc]
reverse link PaymentMethod to CardPayment--><g id="link_PaymentMethod_CardPayment"><path codeLine="81" d="M1369.64,354.8669 C1350.19,370.3369 1329.62,386.7069 1310.21,402.1369 " fill="none" id="PaymentMethod-backto-CardPayment" style="stroke:#000000;stroke-width:1.0;"/><polygon fill="none" points="1365.3,349.3769,1385.31,342.4069,1374.02,360.3369,1365.3,349.3769" style="stroke:#000000;stroke-width:1.0;"/></g><!--MD5=[1df1c036b6b4653978e2d9fe5bbf71f1]
reverse link PaymentMethod to InternetBanking--><g id="link_PaymentMethod_InternetBanking"><path codeLine="82" d="M1548.72,355.1569 C1578.12,378.5469 1610.05,403.9369 1636.63,425.0769 " fill="none" id="PaymentMethod-backto-InternetBanking" style="stroke:#000000;stroke-width:1.0;"/><polygon fill="none" points="1543.98,360.3369,1532.69,342.4069,1552.7,349.3769,1543.98,360.3369" style="stroke:#000000;stroke-width:1.0;"/></g><!--MD5=[5586cb7c1cc6a072084582878293f411]
reverse link PaymentMethod to DeductFromSalary--><g id="link_PaymentMethod_DeductFromSalary"><path codeLine="83" d="M1698.15,341.4969 C1773.47,360.2269 1856.87,381.5469 1933,402.2969 C1959.28,409.4569 1987.11,417.3769 2014.1,425.2369 " fill="none" id="PaymentMethod-backto-DeductFromSalary" style="stroke:#000000;stroke-width:1.0;"/><polygon fill="none" points="1696.4,348.2769,1678.67,336.6669,1699.77,334.6869,1696.4,348.2769" style="stroke:#000000;stroke-width:1.0;"/></g><!--MD5=[c8a8a79d37baced0b5ff53ac464511a7]
reverse link PaymentMethod to FromStudentFee--><g id="link_PaymentMethod_FromStudentFee"><path codeLine="84" d="M1698.72,302.8869 C1891.45,320.8369 2168.44,352.5069 2407,402.2969 C2436.82,408.5169 2468.33,416.6769 2498.29,425.2169 " fill="none" id="PaymentMethod-backto-FromStudentFee" style="stroke:#000000;stroke-width:1.0;"/><polygon fill="none" points="1697.85,309.8369,1678.58,301.0269,1699.14,295.8969,1697.85,309.8369" style="stroke:#000000;stroke-width:1.0;"/></g><rect fill="none" height="39.5781" style="stroke:none;stroke-width:1.0;" width="282" x="1287.25" y="550.7031"/><text fill="#888888" font-family="sans-serif" font-size="10" lengthAdjust="spacing" textLength="3" x="1426.75" y="559.9854"> </text><text fill="#888888" font-family="sans-serif" font-size="14" font-weight="bold" lengthAdjust="spacing" text-decoration="underline" textLength="282" x="1287.25" y="575.3389">Designed By Assignment1_Part2_11</text><text fill="#888888" font-family="sans-serif" font-size="10" lengthAdjust="spacing" textLength="3" x="1426.75" y="587.9229"> </text><!--MD5=[a7ca8b050d5808d6a876663e0910a168]
@startuml Assignment1_Part2_11_2
skinparam class {
 BackgroundColor #FFFFFF
 BorderColor #000000
 ArrowColor #000000
 FontColor #000000

}

skinparam classFontColor black
skinparam classFontSize 20
skinparam classFontName sans-serif

title <size:24></size>

abstract class VehicleType #A9DCDF {
 - vehicleTypeId: String
 + getVehicleTypeId(): String
 + getVehicleDetails(): Map<String, Object>
}

note right : Within the Vehicle class, \nthere is an instance variable named VehicleType, \nand it should be of the type VehicleType. \nThe actual implementation of the VehicleType class \nwould contain details about the properties and \nmethods associated with representing a vehicle type.

class Bike extends VehicleType {
 - bikeSpecific: String
 + getBikeSpecific(): String
}

class Moped extends VehicleType {
 - bicycleSpecific: String
 + getBicycleSpecific(): String
}

class Bicycle extends VehicleType {
 - bicycleSpecific: String
 + getBicycleSpecific(): String
}

abstract class PaymentMethod #A9DCDF {
 #accountId: String
 #accountHolderName: String
 +makePayment(amount: double): boolean
}

note top : Within the PaymentManagement class, \nthere is an instance variable named paymentMethod, \nand it should be of the type PaymentMethod. \nThe actual implementation of the PaymentMethod class \nwould contain details about the properties and \nmethods associated with representing a payment method.

class InAppWalletPayment {
 -addMoneyToWallet(amount: double): boolean
 +makePayment(amount: double): boolean
 -enableAutoDeduction(): void
}

class UPIPayment {
 #upiId: String
 +makePayment(amount: double): boolean
}

class CardPayment {
 #cardNumber: String
 #expiryDate: String
 #cvv: String
 +makePayment(amount: double): boolean
}

class InternetBanking {
 #bankName: String
 +makePayment(amount: double): boolean
}

class DeductFromSalary {
 #employeeId: int
 +makePayment(amount: double): boolean
}

class FromStudentFee {
 #studentId: int
 +makePayment(amount: double): boolean
}

PaymentMethod <|- - InAppWalletPayment
PaymentMethod <|- - UPIPayment
PaymentMethod <|- - CardPayment
PaymentMethod <|- - InternetBanking
PaymentMethod <|- - DeductFromSalary
PaymentMethod <|- - FromStudentFee



footer \n<size:14><b><u>Designed By Assignment1_Part2_11</u></b></size>\n

@enduml

PlantUML version 1.2022.7(Mon Aug 22 22:31:30 IST 2022)
(GPL source distribution)
Java Runtime: OpenJDK Runtime Environment
JVM: OpenJDK 64-Bit Server VM
Default Encoding: UTF-8
Language: en
Country: IN
--></g></svg>