<?xml version="1.0" encoding="UTF-8" standalone="no"?><svg xmlns="http://www.w3.org/2000/svg" xmlns:xlink="http://www.w3.org/1999/xlink" contentStyleType="text/css" height="746px" preserveAspectRatio="none" style="width:1080px;height:746px;background:#FFFFFF;" version="1.1" viewBox="0 0 1080 746" width="1080px" zoomAndPan="magnify"><defs/><g><rect fill="none" height="54.2344" id="_title" style="stroke:none;stroke-width:1.0;" width="481" x="300.5" y="10"/><text fill="#000000" font-family="sans-serif" font-size="24" font-weight="bold" lengthAdjust="spacing" text-decoration="underline" textLength="471" x="305.5" y="37.2773">Sequence Diagram for Trip Process</text><text fill="#000000" font-family="sans-serif" font-size="14" font-weight="bold" lengthAdjust="spacing" textLength="5" x="538.5" y="55.9326"> </text><rect fill="#FFFFFF" height="29.1328" style="stroke:#181818;stroke-width:1.0;" width="10" x="48" y="185.9297"/><rect fill="#FFFFFF" height="383.2031" style="stroke:#181818;stroke-width:1.0;" width="10" x="261" y="132.6641"/><rect fill="#FFFFFF" height="29.1328" style="stroke:#181818;stroke-width:1.0;" width="10" x="481" y="457.6016"/><rect fill="#FFFFFF" height="174.7969" style="stroke:#181818;stroke-width:1.0;" width="10" x="588.5" y="370.2031"/><rect fill="#FFFFFF" height="29.1328" style="stroke:#181818;stroke-width:1.0;" width="10" x="728.5" y="399.3359"/><rect fill="#FFFFFF" height="29.1328" style="stroke:#181818;stroke-width:1.0;" width="10" x="992" y="613.0703"/><rect fill="none" height="194.4063" style="stroke:#000000;stroke-width:1.5;" width="382" x="10" y="147.6641"/><rect fill="none" height="90.2031" style="stroke:#000000;stroke-width:1.5;" width="362" x="20" y="244.8672"/><rect fill="none" height="90.2031" style="stroke:#000000;stroke-width:1.5;" width="1053" x="20" y="560"/><line style="stroke:#181818;stroke-width:0.5;stroke-dasharray:5.0,5.0;" x1="53" x2="53" y1="101.5313" y2="667.2031"/><line style="stroke:#181818;stroke-width:0.5;stroke-dasharray:5.0,5.0;" x1="266" x2="266" y1="101.5313" y2="667.2031"/><line style="stroke:#181818;stroke-width:0.5;stroke-dasharray:5.0,5.0;" x1="486" x2="486" y1="101.5313" y2="667.2031"/><line style="stroke:#181818;stroke-width:0.5;stroke-dasharray:5.0,5.0;" x1="593" x2="593" y1="101.5313" y2="667.2031"/><line style="stroke:#181818;stroke-width:0.5;stroke-dasharray:5.0,5.0;" x1="733" x2="733" y1="101.5313" y2="667.2031"/><line style="stroke:#181818;stroke-width:0.5;stroke-dasharray:5.0,5.0;" x1="864" x2="864" y1="101.5313" y2="667.2031"/><line style="stroke:#181818;stroke-width:0.5;stroke-dasharray:5.0,5.0;" x1="997" x2="997" y1="101.5313" y2="667.2031"/><rect fill="#99FF99" height="30.2969" rx="2.5" ry="2.5" style="stroke:#181818;stroke-width:0.5;" width="46" x="30" y="70.2344"/><text fill="#000000" font-family="sans-serif" font-size="14" lengthAdjust="spacing" textLength="32" x="37" y="90.2295">User</text><rect fill="#99FF99" height="30.2969" rx="2.5" ry="2.5" style="stroke:#181818;stroke-width:0.5;" width="46" x="30" y="666.2031"/><text fill="#000000" font-family="sans-serif" font-size="14" lengthAdjust="spacing" textLength="32" x="37" y="686.1982">User</text><rect fill="#A9DCDF" height="30.2969" rx="2.5" ry="2.5" style="stroke:#181818;stroke-width:0.5;" width="212" x="160" y="70.2344"/><text fill="#000000" font-family="sans-serif" font-size="14" lengthAdjust="spacing" textLength="198" x="167" y="90.2295">SmartVehicleBookingSystem</text><rect fill="#A9DCDF" height="30.2969" rx="2.5" ry="2.5" style="stroke:#181818;stroke-width:0.5;" width="212" x="160" y="666.2031"/><text fill="#000000" font-family="sans-serif" font-size="14" lengthAdjust="spacing" textLength="198" x="167" y="686.1982">SmartVehicleBookingSystem</text><rect fill="#ADD1B2" height="30.2969" rx="2.5" ry="2.5" style="stroke:#181818;stroke-width:0.5;" width="64" x="454" y="70.2344"/><text fill="#000000" font-family="sans-serif" font-size="14" lengthAdjust="spacing" textLength="50" x="461" y="90.2295">Vehicle</text><rect fill="#ADD1B2" height="30.2969" rx="2.5" ry="2.5" style="stroke:#181818;stroke-width:0.5;" width="64" x="454" y="666.2031"/><text fill="#000000" font-family="sans-serif" font-size="14" lengthAdjust="spacing" textLength="50" x="461" y="686.1982">Vehicle</text><rect fill="#ADD1B2" height="30.2969" rx="2.5" ry="2.5" style="stroke:#181818;stroke-width:0.5;" width="131" x="528" y="70.2344"/><text fill="#000000" font-family="sans-serif" font-size="14" lengthAdjust="spacing" textLength="117" x="535" y="90.2295">TripManagement</text><rect fill="#ADD1B2" height="30.2969" rx="2.5" ry="2.5" style="stroke:#181818;stroke-width:0.5;" width="131" x="528" y="666.2031"/><text fill="#000000" font-family="sans-serif" font-size="14" lengthAdjust="spacing" textLength="117" x="535" y="686.1982">TripManagement</text><rect fill="#ADD1B2" height="30.2969" rx="2.5" ry="2.5" style="stroke:#181818;stroke-width:0.5;" width="129" x="669" y="70.2344"/><text fill="#000000" font-family="sans-serif" font-size="14" lengthAdjust="spacing" textLength="115" x="676" y="90.2295">QRCodeScanner</text><rect fill="#ADD1B2" height="30.2969" rx="2.5" ry="2.5" style="stroke:#181818;stroke-width:0.5;" width="129" x="669" y="666.2031"/><text fill="#000000" font-family="sans-serif" font-size="14" lengthAdjust="spacing" textLength="115" x="676" y="686.1982">QRCodeScanner</text><rect fill="#ADD1B2" height="30.2969" rx="2.5" ry="2.5" style="stroke:#181818;stroke-width:0.5;" width="113" x="808" y="70.2344"/><text fill="#000000" font-family="sans-serif" font-size="14" lengthAdjust="spacing" textLength="99" x="815" y="90.2295">ParkingStation</text><rect fill="#ADD1B2" height="30.2969" rx="2.5" ry="2.5" style="stroke:#181818;stroke-width:0.5;" width="113" x="808" y="666.2031"/><text fill="#000000" font-family="sans-serif" font-size="14" lengthAdjust="spacing" textLength="99" x="815" y="686.1982">ParkingStation</text><rect fill="#E3664A" height="30.2969" rx="2.5" ry="2.5" style="stroke:#181818;stroke-width:0.5;" width="132" x="931" y="70.2344"/><text fill="#000000" font-family="sans-serif" font-size="14" lengthAdjust="spacing" textLength="118" x="938" y="90.2295">PenaltyCalculator</text><rect fill="#E3664A" height="30.2969" rx="2.5" ry="2.5" style="stroke:#181818;stroke-width:0.5;" width="132" x="931" y="666.2031"/><text fill="#000000" font-family="sans-serif" font-size="14" lengthAdjust="spacing" textLength="118" x="938" y="686.1982">PenaltyCalculator</text><rect fill="#FFFFFF" height="29.1328" style="stroke:#181818;stroke-width:1.0;" width="10" x="48" y="185.9297"/><rect fill="#FFFFFF" height="383.2031" style="stroke:#181818;stroke-width:1.0;" width="10" x="261" y="132.6641"/><rect fill="#FFFFFF" height="29.1328" style="stroke:#181818;stroke-width:1.0;" width="10" x="481" y="457.6016"/><rect fill="#FFFFFF" height="174.7969" style="stroke:#181818;stroke-width:1.0;" width="10" x="588.5" y="370.2031"/><rect fill="#FFFFFF" height="29.1328" style="stroke:#181818;stroke-width:1.0;" width="10" x="728.5" y="399.3359"/><rect fill="#FFFFFF" height="29.1328" style="stroke:#181818;stroke-width:1.0;" width="10" x="992" y="613.0703"/><polygon fill="#181818" points="249,128.6641,259,132.6641,249,136.6641,253,132.6641" style="stroke:#181818;stroke-width:1.0;"/><line style="stroke:#181818;stroke-width:1.0;" x1="53" x2="255" y1="132.6641" y2="132.6641"/><text fill="#000000" font-family="sans-serif" font-size="13" lengthAdjust="spacing" textLength="154" x="60" y="127.5981">createTrip(user, vehicle)</text><path d="M10,147.6641 L74,147.6641 L74,154.7969 L64,164.7969 L10,164.7969 L10,147.6641 " fill="#EEEEEE" style="stroke:#000000;stroke-width:1.5;"/><rect fill="none" height="194.4063" style="stroke:#000000;stroke-width:1.5;" width="382" x="10" y="147.6641"/><text fill="#000000" font-family="sans-serif" font-size="13" font-weight="bold" lengthAdjust="spacing" textLength="19" x="25" y="160.731">alt</text><text fill="#000000" font-family="sans-serif" font-size="11" font-weight="bold" lengthAdjust="spacing" textLength="71" x="89" y="159.8745">[New User]</text><polygon fill="#181818" points="69,181.9297,59,185.9297,69,189.9297,65,185.9297" style="stroke:#181818;stroke-width:1.0;"/><line style="stroke:#181818;stroke-width:1.0;" x1="63" x2="260" y1="185.9297" y2="185.9297"/><text fill="#000000" font-family="sans-serif" font-size="13" lengthAdjust="spacing" textLength="117" x="75" y="180.8638">registerUser(user)</text><polygon fill="#181818" points="249,211.0625,259,215.0625,249,219.0625,253,215.0625" style="stroke:#181818;stroke-width:1.0;"/><line style="stroke:#181818;stroke-width:1.0;" x1="53" x2="255" y1="215.0625" y2="215.0625"/><text fill="#000000" font-family="sans-serif" font-size="13" lengthAdjust="spacing" textLength="179" x="60" y="209.9966">addMoneyToWallet(amount)</text><line style="stroke:#000000;stroke-width:1.0;stroke-dasharray:2.0,2.0;" x1="10" x2="392" y1="224.0625" y2="224.0625"/><text fill="#000000" font-family="sans-serif" font-size="11" font-weight="bold" lengthAdjust="spacing" textLength="94" x="15" y="234.2729">[Existing User]</text><path d="M20,244.8672 L84,244.8672 L84,252 L74,262 L20,262 L20,244.8672 " fill="#EEEEEE" style="stroke:#000000;stroke-width:1.5;"/><rect fill="none" height="90.2031" style="stroke:#000000;stroke-width:1.5;" width="362" x="20" y="244.8672"/><text fill="#000000" font-family="sans-serif" font-size="13" font-weight="bold" lengthAdjust="spacing" textLength="19" x="35" y="257.9341">alt</text><text fill="#000000" font-family="sans-serif" font-size="11" font-weight="bold" lengthAdjust="spacing" textLength="114" x="99" y="257.0776">[Staff or Teacher]</text><polygon fill="#181818" points="64,279.1328,54,283.1328,64,287.1328,60,283.1328" style="stroke:#181818;stroke-width:1.0;"/><line style="stroke:#181818;stroke-width:1.0;" x1="58" x2="260" y1="283.1328" y2="283.1328"/><text fill="#000000" font-family="sans-serif" font-size="13" lengthAdjust="spacing" textLength="177" x="70" y="278.0669">deductFromSalary(amount)</text><line style="stroke:#000000;stroke-width:1.0;stroke-dasharray:2.0,2.0;" x1="20" x2="382" y1="292.1328" y2="292.1328"/><text fill="#000000" font-family="sans-serif" font-size="11" font-weight="bold" lengthAdjust="spacing" textLength="86" x="25" y="302.3433">[Other Users]</text><polygon fill="#181818" points="64,323.0703,54,327.0703,64,331.0703,60,327.0703" style="stroke:#181818;stroke-width:1.0;"/><line style="stroke:#181818;stroke-width:1.0;" x1="58" x2="260" y1="327.0703" y2="327.0703"/><text fill="#000000" font-family="sans-serif" font-size="13" lengthAdjust="spacing" textLength="175" x="70" y="322.0044">deductFromWallet(amount)</text><polygon fill="#181818" points="576.5,366.2031,586.5,370.2031,576.5,374.2031,580.5,370.2031" style="stroke:#181818;stroke-width:1.0;"/><line style="stroke:#181818;stroke-width:1.0;" x1="271" x2="582.5" y1="370.2031" y2="370.2031"/><text fill="#000000" font-family="sans-serif" font-size="13" lengthAdjust="spacing" textLength="227" x="278" y="365.1372">new TripManagement(user, vehicle)</text><polygon fill="#181818" points="716.5,395.3359,726.5,399.3359,716.5,403.3359,720.5,399.3359" style="stroke:#181818;stroke-width:1.0;"/><line style="stroke:#181818;stroke-width:1.0;" x1="53" x2="722.5" y1="399.3359" y2="399.3359"/><text fill="#000000" font-family="sans-serif" font-size="13" lengthAdjust="spacing" textLength="123" x="60" y="394.27">scanQRCode(tripId)</text><polygon fill="#181818" points="282,424.4688,272,428.4688,282,432.4688,278,428.4688" style="stroke:#181818;stroke-width:1.0;"/><line style="stroke:#181818;stroke-width:1.0;" x1="276" x2="732.5" y1="428.4688" y2="428.4688"/><text fill="#000000" font-family="sans-serif" font-size="13" lengthAdjust="spacing" textLength="99" x="288" y="423.4028">verifyTrip(tripId)</text><polygon fill="#181818" points="469,453.6016,479,457.6016,469,461.6016,473,457.6016" style="stroke:#181818;stroke-width:1.0;"/><line style="stroke:#181818;stroke-width:1.0;" x1="271" x2="475" y1="457.6016" y2="457.6016"/><text fill="#000000" font-family="sans-serif" font-size="13" lengthAdjust="spacing" textLength="191" x="278" y="452.5356">dockAtParkingStation(vehicle)</text><polygon fill="#181818" points="282,482.7344,272,486.7344,282,490.7344,278,486.7344" style="stroke:#181818;stroke-width:1.0;"/><line style="stroke:#181818;stroke-width:1.0;" x1="276" x2="485" y1="486.7344" y2="486.7344"/><text fill="#000000" font-family="sans-serif" font-size="13" lengthAdjust="spacing" textLength="96" x="288" y="481.6685">notifyDocking()</text><polygon fill="#181818" points="64,511.8672,54,515.8672,64,519.8672,60,515.8672" style="stroke:#181818;stroke-width:1.0;"/><line style="stroke:#181818;stroke-width:1.0;" x1="58" x2="265" y1="515.8672" y2="515.8672"/><text fill="#000000" font-family="sans-serif" font-size="13" lengthAdjust="spacing" textLength="152" x="70" y="510.8013">displayEndTripQRCode()</text><polygon fill="#181818" points="64,541,54,545,64,549,60,545" style="stroke:#181818;stroke-width:1.0;"/><line style="stroke:#181818;stroke-width:1.0;" x1="58" x2="592.5" y1="545" y2="545"/><text fill="#000000" font-family="sans-serif" font-size="13" lengthAdjust="spacing" textLength="63" x="70" y="539.9341">startTrip()</text><path d="M20,560 L84,560 L84,567.1328 L74,577.1328 L20,577.1328 L20,560 " fill="#EEEEEE" style="stroke:#000000;stroke-width:1.5;"/><rect fill="none" height="90.2031" style="stroke:#000000;stroke-width:1.5;" width="1053" x="20" y="560"/><text fill="#000000" font-family="sans-serif" font-size="13" font-weight="bold" lengthAdjust="spacing" textLength="19" x="35" y="573.0669">alt</text><text fill="#000000" font-family="sans-serif" font-size="11" font-weight="bold" lengthAdjust="spacing" textLength="212" x="99" y="572.2104">[Vehicle returned within 8 hours]</text><line style="stroke:#000000;stroke-width:1.0;stroke-dasharray:2.0,2.0;" x1="20" x2="1073" y1="578.1328" y2="578.1328"/><text fill="#000000" font-family="sans-serif" font-size="11" font-weight="bold" lengthAdjust="spacing" textLength="237" x="25" y="588.3433">[Vehicle not returned within 8 hours]</text><polygon fill="#181818" points="980,609.0703,990,613.0703,980,617.0703,984,613.0703" style="stroke:#181818;stroke-width:1.0;"/><line style="stroke:#181818;stroke-width:1.0;" x1="53" x2="986" y1="613.0703" y2="613.0703"/><text fill="#000000" font-family="sans-serif" font-size="13" lengthAdjust="spacing" textLength="144" x="60" y="608.0044">calculatePenalty(days)</text><polygon fill="#181818" points="64,638.2031,54,642.2031,64,646.2031,60,642.2031" style="stroke:#181818;stroke-width:1.0;"/><line style="stroke:#181818;stroke-width:1.0;" x1="58" x2="996" y1="642.2031" y2="642.2031"/><text fill="#000000" font-family="sans-serif" font-size="13" lengthAdjust="spacing" textLength="194" x="70" y="637.1372">displayPenaltyCharge(penalty)</text><rect fill="none" height="39.5781" id="_title" style="stroke:none;stroke-width:1.0;" width="203" x="439.5" y="698.5"/><text fill="#888888" font-family="sans-serif" font-size="10" lengthAdjust="spacing" textLength="3" x="539.5" y="707.7822"> </text><text fill="#888888" font-family="sans-serif" font-size="14" font-weight="bold" lengthAdjust="spacing" text-decoration="underline" textLength="203" x="439.5" y="723.1357">Designed By 2020900023</text><text fill="#888888" font-family="sans-serif" font-size="10" lengthAdjust="spacing" textLength="3" x="539.5" y="735.7197"> </text><!--MD5=[5daabcab51e8f988909cad31f7bacbab]
@startuml Assignment-1_2020900023_4
title <size:24><b><u>Sequence Diagram for Trip Process</u></b></size>\n

skinparam classFontColor black
skinparam classFontSize 20
skinparam classFontName sans-serif


participant User #99FF99
participant SmartVehicleBookingSystem #A9DCDF
participant Vehicle #ADD1B2
participant TripManagement #ADD1B2
participant QRCodeScanner #ADD1B2
participant ParkingStation #ADD1B2
participant PenaltyCalculator #E3664A

User -> SmartVehicleBookingSystem : createTrip(user, vehicle)
activate SmartVehicleBookingSystem
alt New User
 SmartVehicleBookingSystem -> User : registerUser(user)
 activate User
 User -> SmartVehicleBookingSystem : addMoneyToWallet(amount)
 deactivate User
else Existing User
 alt Staff or Teacher
 SmartVehicleBookingSystem -> User : deductFromSalary(amount)
 else Other Users
 SmartVehicleBookingSystem -> User : deductFromWallet(amount)
 end
end
SmartVehicleBookingSystem -> TripManagement : new TripManagement(user, vehicle)
activate TripManagement
User -> QRCodeScanner : scanQRCode(tripId)
activate QRCodeScanner
QRCodeScanner -> SmartVehicleBookingSystem : verifyTrip(tripId)
deactivate QRCodeScanner
SmartVehicleBookingSystem -> Vehicle : dockAtParkingStation(vehicle)
activate Vehicle
Vehicle -> SmartVehicleBookingSystem : notifyDocking()
deactivate Vehicle
SmartVehicleBookingSystem -> User : displayEndTripQRCode()
deactivate SmartVehicleBookingSystem
TripManagement -> User : startTrip()
deactivate TripManagement
alt Vehicle returned within 8 hours
 else Vehicle not returned within 8 hours
 User -> PenaltyCalculator : calculatePenalty(days)
 activate PenaltyCalculator
 PenaltyCalculator -> User : displayPenaltyCharge(penalty)
 deactivate PenaltyCalculator
 end
footer \n<size:14><b><u>Designed By 2020900023</u></b></size>\n
@enduml

PlantUML version 1.2022.7(Mon Aug 22 22:31:30 IST 2022)
(GPL source distribution)
Java Runtime: OpenJDK Runtime Environment
JVM: OpenJDK 64-Bit Server VM
Default Encoding: UTF-8
Language: en
Country: IN
--></g></svg>