<?xml version="1.0" encoding="UTF-8" standalone="no"?><svg xmlns="http://www.w3.org/2000/svg" xmlns:xlink="http://www.w3.org/1999/xlink" contentStyleType="text/css" height="1341px" preserveAspectRatio="none" style="width:1280px;height:1341px;background:#FFFFFF;" version="1.1" viewBox="0 0 1280 1341" width="1280px" zoomAndPan="magnify"><defs/><g><rect fill="none" height="37.9375" id="_title" style="stroke:none;stroke-width:1.0;" width="790" x="238.25" y="5"/><text fill="#000000" font-family="sans-serif" font-size="24" font-weight="bold" lengthAdjust="spacing" textLength="780" x="243.25" y="32.2773">Smart Vehicle Booking System - Class Diagram By Vilal Ali</text><!--MD5=[3fd616f346a44cd59a91eb10b19e157c]
class User--><g id="elem_User"><rect codeLine="10" fill="#FFFFFF" height="210.9688" id="User" rx="2.5" ry="2.5" style="stroke:#000000;stroke-width:0.5;" width="314" x="492.5" y="359.9375"/><ellipse cx="629.25" cy="375.9375" fill="#ADD1B2" rx="11" ry="11" style="stroke:#181818;stroke-width:1.0;"/><path d="M632.2188,381.5781 Q631.6406,381.875 631,382.0156 Q630.3594,382.1719 629.6563,382.1719 Q627.1563,382.1719 625.8281,380.5313 Q624.5156,378.875 624.5156,375.75 Q624.5156,372.625 625.8281,370.9688 Q627.1563,369.3125 629.6563,369.3125 Q630.3594,369.3125 631,369.4688 Q631.6563,369.625 632.2188,369.9219 L632.2188,372.6406 Q631.5938,372.0625 631,371.7969 Q630.4063,371.5156 629.7813,371.5156 Q628.4375,371.5156 627.75,372.5938 Q627.0625,373.6563 627.0625,375.75 Q627.0625,377.8438 627.75,378.9219 Q628.4375,379.9844 629.7813,379.9844 Q630.4063,379.9844 631,379.7188 Q631.5938,379.4375 632.2188,378.8594 L632.2188,381.5781 Z " fill="#000000"/><text fill="#000000" font-family="sans-serif" font-size="14" lengthAdjust="spacing" textLength="32" x="649.75" y="380.7842">User</text><line style="stroke:#000000;stroke-width:0.5;" x1="493.5" x2="805.5" y1="391.9375" y2="391.9375"/><rect fill="none" height="6" style="stroke:#C82930;stroke-width:1.0;" width="6" x="500.5" y="402.5859"/><text fill="#000000" font-family="sans-serif" font-size="14" lengthAdjust="spacing" textLength="92" x="512.5" y="408.9326">userId: String</text><rect fill="none" height="6" style="stroke:#C82930;stroke-width:1.0;" width="6" x="500.5" y="418.8828"/><text fill="#000000" font-family="sans-serif" font-size="14" lengthAdjust="spacing" textLength="88" x="512.5" y="425.2295">name: String</text><rect fill="none" height="6" style="stroke:#C82930;stroke-width:1.0;" width="6" x="500.5" y="435.1797"/><text fill="#000000" font-family="sans-serif" font-size="14" lengthAdjust="spacing" textLength="85" x="512.5" y="441.5264">email: String</text><rect fill="none" height="6" style="stroke:#C82930;stroke-width:1.0;" width="6" x="500.5" y="451.4766"/><text fill="#000000" font-family="sans-serif" font-size="14" lengthAdjust="spacing" textLength="116" x="512.5" y="457.8232">password: String</text><rect fill="none" height="6" style="stroke:#C82930;stroke-width:1.0;" width="6" x="500.5" y="467.7734"/><text fill="#000000" font-family="sans-serif" font-size="14" lengthAdjust="spacing" textLength="140" x="512.5" y="474.1201">userType: UserType</text><rect fill="none" height="6" style="stroke:#C82930;stroke-width:1.0;" width="6" x="500.5" y="484.0703"/><text fill="#000000" font-family="sans-serif" font-size="14" lengthAdjust="spacing" textLength="89" x="512.5" y="490.417">wallet: Wallet</text><line style="stroke:#000000;stroke-width:0.5;" x1="493.5" x2="805.5" y1="497.7188" y2="497.7188"/><ellipse cx="503.5" cy="511.3672" fill="#84BE84" rx="3" ry="3" style="stroke:#038048;stroke-width:1.0;"/><text fill="#000000" font-family="sans-serif" font-size="14" lengthAdjust="spacing" textLength="148" x="512.5" y="514.7139">createAccount(): void</text><ellipse cx="503.5" cy="527.6641" fill="#84BE84" rx="3" ry="3" style="stroke:#038048;stroke-width:1.0;"/><text fill="#000000" font-family="sans-serif" font-size="14" lengthAdjust="spacing" textLength="106" x="512.5" y="531.0107">uploadId(): void</text><ellipse cx="503.5" cy="543.9609" fill="#84BE84" rx="3" ry="3" style="stroke:#038048;stroke-width:1.0;"/><text fill="#000000" font-family="sans-serif" font-size="14" lengthAdjust="spacing" textLength="288" x="512.5" y="547.3076">addMoneyToWallet(amount: double): void</text><ellipse cx="503.5" cy="560.2578" fill="#84BE84" rx="3" ry="3" style="stroke:#038048;stroke-width:1.0;"/><text fill="#000000" font-family="sans-serif" font-size="14" lengthAdjust="spacing" textLength="150" x="512.5" y="563.6045">viewTripHistory(): void</text></g><!--MD5=[9f070bf9f108c27faa2eb76515c78fb3]
class Wallet--><g id="elem_Wallet"><rect codeLine="23" fill="#FFFFFF" height="96.8906" id="Wallet" rx="2.5" ry="2.5" style="stroke:#000000;stroke-width:0.5;" width="278" x="303.5" y="695.9375"/><ellipse cx="417.75" cy="711.9375" fill="#ADD1B2" rx="11" ry="11" style="stroke:#181818;stroke-width:1.0;"/><path d="M420.7188,717.5781 Q420.1406,717.875 419.5,718.0156 Q418.8594,718.1719 418.1563,718.1719 Q415.6563,718.1719 414.3281,716.5313 Q413.0156,714.875 413.0156,711.75 Q413.0156,708.625 414.3281,706.9688 Q415.6563,705.3125 418.1563,705.3125 Q418.8594,705.3125 419.5,705.4688 Q420.1563,705.625 420.7188,705.9219 L420.7188,708.6406 Q420.0938,708.0625 419.5,707.7969 Q418.9063,707.5156 418.2813,707.5156 Q416.9375,707.5156 416.25,708.5938 Q415.5625,709.6563 415.5625,711.75 Q415.5625,713.8438 416.25,714.9219 Q416.9375,715.9844 418.2813,715.9844 Q418.9063,715.9844 419.5,715.7188 Q420.0938,715.4375 420.7188,714.8594 L420.7188,717.5781 Z " fill="#000000"/><text fill="#000000" font-family="sans-serif" font-size="14" lengthAdjust="spacing" textLength="41" x="438.25" y="716.7842">Wallet</text><line style="stroke:#000000;stroke-width:0.5;" x1="304.5" x2="580.5" y1="727.9375" y2="727.9375"/><rect fill="none" height="6" style="stroke:#C82930;stroke-width:1.0;" width="6" x="311.5" y="738.5859"/><text fill="#000000" font-family="sans-serif" font-size="14" lengthAdjust="spacing" textLength="111" x="323.5" y="744.9326">balance: double</text><line style="stroke:#000000;stroke-width:0.5;" x1="304.5" x2="580.5" y1="752.2344" y2="752.2344"/><ellipse cx="314.5" cy="765.8828" fill="#84BE84" rx="3" ry="3" style="stroke:#038048;stroke-width:1.0;"/><text fill="#000000" font-family="sans-serif" font-size="14" lengthAdjust="spacing" textLength="229" x="323.5" y="769.2295">addMoney(amount: double): void</text><ellipse cx="314.5" cy="782.1797" fill="#84BE84" rx="3" ry="3" style="stroke:#038048;stroke-width:1.0;"/><text fill="#000000" font-family="sans-serif" font-size="14" lengthAdjust="spacing" textLength="252" x="323.5" y="785.5264">deductMoney(amount: double): void</text></g><!--MD5=[eff099f41b4ab245f31ecac80b8c4343]
class UserType--><g id="elem_UserType"><rect codeLine="29" fill="#FFFFFF" height="96.8906" id="UserType" rx="2.5" ry="2.5" style="stroke:#000000;stroke-width:0.5;" width="98" x="121.5" y="129.4375"/><ellipse cx="136.5" cy="145.4375" fill="#EB937F" rx="11" ry="11" style="stroke:#181818;stroke-width:1.0;"/><path d="M140.6094,151.4375 L132.8906,151.4375 L132.8906,139.0469 L140.6094,139.0469 L140.6094,141.2031 L135.3438,141.2031 L135.3438,143.875 L140.1094,143.875 L140.1094,146.0313 L135.3438,146.0313 L135.3438,149.2813 L140.6094,149.2813 L140.6094,151.4375 Z " fill="#000000"/><text fill="#000000" font-family="sans-serif" font-size="14" lengthAdjust="spacing" textLength="66" x="150.5" y="150.2842">UserType</text><line style="stroke:#000000;stroke-width:0.5;" x1="122.5" x2="218.5" y1="161.4375" y2="161.4375"/><text fill="#000000" font-family="sans-serif" font-size="14" lengthAdjust="spacing" textLength="55" x="127.5" y="178.4326">Student</text><text fill="#000000" font-family="sans-serif" font-size="14" lengthAdjust="spacing" textLength="30" x="127.5" y="194.7295">Staff</text><text fill="#000000" font-family="sans-serif" font-size="14" lengthAdjust="spacing" textLength="57" x="127.5" y="211.0264">Teacher</text><line style="stroke:#000000;stroke-width:0.5;" x1="122.5" x2="218.5" y1="218.3281" y2="218.3281"/></g><!--MD5=[3aa0d89c6bfdcbf7f32042cedac57549]
class Vehicle--><g id="elem_Vehicle"><rect codeLine="35" fill="#FFFFFF" height="113.1875" id="Vehicle" rx="2.5" ry="2.5" style="stroke:#000000;stroke-width:0.5;" width="236" x="823.5" y="917.9375"/><ellipse cx="912.25" cy="933.9375" fill="#ADD1B2" rx="11" ry="11" style="stroke:#181818;stroke-width:1.0;"/><path d="M915.2188,939.5781 Q914.6406,939.875 914,940.0156 Q913.3594,940.1719 912.6563,940.1719 Q910.1563,940.1719 908.8281,938.5313 Q907.5156,936.875 907.5156,933.75 Q907.5156,930.625 908.8281,928.9688 Q910.1563,927.3125 912.6563,927.3125 Q913.3594,927.3125 914,927.4688 Q914.6563,927.625 915.2188,927.9219 L915.2188,930.6406 Q914.5938,930.0625 914,929.7969 Q913.4063,929.5156 912.7813,929.5156 Q911.4375,929.5156 910.75,930.5938 Q910.0625,931.6563 910.0625,933.75 Q910.0625,935.8438 910.75,936.9219 Q911.4375,937.9844 912.7813,937.9844 Q913.4063,937.9844 914,937.7188 Q914.5938,937.4375 915.2188,936.8594 L915.2188,939.5781 Z " fill="#000000"/><text fill="#000000" font-family="sans-serif" font-size="14" lengthAdjust="spacing" textLength="50" x="932.75" y="938.7842">Vehicle</text><line style="stroke:#000000;stroke-width:0.5;" x1="824.5" x2="1058.5" y1="949.9375" y2="949.9375"/><rect fill="none" height="6" style="stroke:#C82930;stroke-width:1.0;" width="6" x="831.5" y="960.5859"/><text fill="#000000" font-family="sans-serif" font-size="14" lengthAdjust="spacing" textLength="109" x="843.5" y="966.9326">vehicleId: String</text><rect fill="none" height="6" style="stroke:#C82930;stroke-width:1.0;" width="6" x="831.5" y="976.8828"/><text fill="#000000" font-family="sans-serif" font-size="14" lengthAdjust="spacing" textLength="175" x="843.5" y="983.2295">vehicleType: VehicleType</text><line style="stroke:#000000;stroke-width:0.5;" x1="824.5" x2="1058.5" y1="990.5313" y2="990.5313"/><ellipse cx="834.5" cy="1004.1797" fill="#84BE84" rx="3" ry="3" style="stroke:#038048;stroke-width:1.0;"/><text fill="#000000" font-family="sans-serif" font-size="14" lengthAdjust="spacing" textLength="144" x="843.5" y="1007.5264">getVehicleId(): String</text><ellipse cx="834.5" cy="1020.4766" fill="#84BE84" rx="3" ry="3" style="stroke:#038048;stroke-width:1.0;"/><text fill="#000000" font-family="sans-serif" font-size="14" lengthAdjust="spacing" textLength="210" x="843.5" y="1023.8232">getVehicleType(): VehicleType</text></g><!--MD5=[9e8cdc57c56bad5cdfc47653c9df3022]
class VehicleType--><g id="elem_VehicleType"><rect codeLine="42" fill="#FFFFFF" height="96.8906" id="VehicleType" rx="2.5" ry="2.5" style="stroke:#000000;stroke-width:0.5;" width="116" x="254.5" y="129.4375"/><ellipse cx="269.5" cy="145.4375" fill="#EB937F" rx="11" ry="11" style="stroke:#181818;stroke-width:1.0;"/><path d="M273.6094,151.4375 L265.8906,151.4375 L265.8906,139.0469 L273.6094,139.0469 L273.6094,141.2031 L268.3438,141.2031 L268.3438,143.875 L273.1094,143.875 L273.1094,146.0313 L268.3438,146.0313 L268.3438,149.2813 L273.6094,149.2813 L273.6094,151.4375 Z " fill="#000000"/><text fill="#000000" font-family="sans-serif" font-size="14" lengthAdjust="spacing" textLength="84" x="283.5" y="150.2842">VehicleType</text><line style="stroke:#000000;stroke-width:0.5;" x1="255.5" x2="369.5" y1="161.4375" y2="161.4375"/><text fill="#000000" font-family="sans-serif" font-size="14" lengthAdjust="spacing" textLength="30" x="260.5" y="178.4326">Bike</text><text fill="#000000" font-family="sans-serif" font-size="14" lengthAdjust="spacing" textLength="48" x="260.5" y="194.7295">Bicycle</text><text fill="#000000" font-family="sans-serif" font-size="14" lengthAdjust="spacing" textLength="48" x="260.5" y="211.0264">Moped</text><line style="stroke:#000000;stroke-width:0.5;" x1="255.5" x2="369.5" y1="218.3281" y2="218.3281"/></g><!--MD5=[8836a49f4083a7550430b1f83332c96a]
class ParkingLot--><g id="elem_ParkingLot"><rect codeLine="48" fill="#FFFFFF" height="243.5625" id="ParkingLot" rx="2.5" ry="2.5" style="stroke:#000000;stroke-width:0.5;" width="241" x="906" y="1090.9375"/><ellipse cx="986.25" cy="1106.9375" fill="#ADD1B2" rx="11" ry="11" style="stroke:#181818;stroke-width:1.0;"/><path d="M989.2188,1112.5781 Q988.6406,1112.875 988,1113.0156 Q987.3594,1113.1719 986.6563,1113.1719 Q984.1563,1113.1719 982.8281,1111.5313 Q981.5156,1109.875 981.5156,1106.75 Q981.5156,1103.625 982.8281,1101.9688 Q984.1563,1100.3125 986.6563,1100.3125 Q987.3594,1100.3125 988,1100.4688 Q988.6563,1100.625 989.2188,1100.9219 L989.2188,1103.6406 Q988.5938,1103.0625 988,1102.7969 Q987.4063,1102.5156 986.7813,1102.5156 Q985.4375,1102.5156 984.75,1103.5938 Q984.0625,1104.6563 984.0625,1106.75 Q984.0625,1108.8438 984.75,1109.9219 Q985.4375,1110.9844 986.7813,1110.9844 Q987.4063,1110.9844 988,1110.7188 Q988.5938,1110.4375 989.2188,1109.8594 L989.2188,1112.5781 Z " fill="#000000"/><text fill="#000000" font-family="sans-serif" font-size="14" lengthAdjust="spacing" textLength="72" x="1006.75" y="1111.7842">ParkingLot</text><line style="stroke:#000000;stroke-width:0.5;" x1="907" x2="1146" y1="1122.9375" y2="1122.9375"/><rect fill="none" height="6" style="stroke:#C82930;stroke-width:1.0;" width="6" x="914" y="1133.5859"/><text fill="#000000" font-family="sans-serif" font-size="14" lengthAdjust="spacing" textLength="133" x="926" y="1139.9326">parkingLotId: String</text><rect fill="none" height="6" style="stroke:#C82930;stroke-width:1.0;" width="6" x="914" y="1149.8828"/><text fill="#000000" font-family="sans-serif" font-size="14" lengthAdjust="spacing" textLength="82" x="926" y="1156.2295">capacity: int</text><rect fill="none" height="6" style="stroke:#C82930;stroke-width:1.0;" width="6" x="914" y="1166.1797"/><text fill="#000000" font-family="sans-serif" font-size="14" lengthAdjust="spacing" textLength="93" x="926" y="1172.5264">availability: int</text><rect fill="none" height="6" style="stroke:#C82930;stroke-width:1.0;" width="6" x="914" y="1182.4766"/><text fill="#000000" font-family="sans-serif" font-size="14" lengthAdjust="spacing" textLength="103" x="926" y="1188.8232">location: String</text><rect fill="none" height="6" style="stroke:#C82930;stroke-width:1.0;" width="6" x="914" y="1198.7734"/><text fill="#000000" font-family="sans-serif" font-size="14" lengthAdjust="spacing" textLength="183" x="926" y="1205.1201">maintenanceStatus: String</text><rect fill="none" height="6" style="stroke:#C82930;stroke-width:1.0;" width="6" x="914" y="1215.0703"/><text fill="#000000" font-family="sans-serif" font-size="14" lengthAdjust="spacing" textLength="164" x="926" y="1221.417">securityFeatures: String</text><line style="stroke:#000000;stroke-width:0.5;" x1="907" x2="1146" y1="1228.7188" y2="1228.7188"/><ellipse cx="917" cy="1242.3672" fill="#84BE84" rx="3" ry="3" style="stroke:#038048;stroke-width:1.0;"/><text fill="#000000" font-family="sans-serif" font-size="14" lengthAdjust="spacing" textLength="166" x="926" y="1245.7139">getParkingLotId(): String</text><ellipse cx="917" cy="1258.6641" fill="#84BE84" rx="3" ry="3" style="stroke:#038048;stroke-width:1.0;"/><text fill="#000000" font-family="sans-serif" font-size="14" lengthAdjust="spacing" textLength="117" x="926" y="1262.0107">getCapacity(): int</text><ellipse cx="917" cy="1274.9609" fill="#84BE84" rx="3" ry="3" style="stroke:#038048;stroke-width:1.0;"/><text fill="#000000" font-family="sans-serif" font-size="14" lengthAdjust="spacing" textLength="127" x="926" y="1278.3076">getAvailability(): int</text><ellipse cx="917" cy="1291.2578" fill="#84BE84" rx="3" ry="3" style="stroke:#038048;stroke-width:1.0;"/><text fill="#000000" font-family="sans-serif" font-size="14" lengthAdjust="spacing" textLength="140" x="926" y="1294.6045">getLocation(): String</text><ellipse cx="917" cy="1307.5547" fill="#84BE84" rx="3" ry="3" style="stroke:#038048;stroke-width:1.0;"/><text fill="#000000" font-family="sans-serif" font-size="14" lengthAdjust="spacing" textLength="215" x="926" y="1310.9014">getMaintenanceStatus(): String</text><ellipse cx="917" cy="1323.8516" fill="#84BE84" rx="3" ry="3" style="stroke:#038048;stroke-width:1.0;"/><text fill="#000000" font-family="sans-serif" font-size="14" lengthAdjust="spacing" textLength="198" x="926" y="1327.1982">getSecurityFeatures(): String</text></g><!--MD5=[18f5b4ccae6e62f3670d3aa352beb4cd]
class Trip--><g id="elem_Trip"><rect codeLine="63" fill="#FFFFFF" height="227.2656" id="Trip" rx="2.5" ry="2.5" style="stroke:#000000;stroke-width:0.5;" width="217" x="688" y="630.9375"/><ellipse cx="779.25" cy="646.9375" fill="#ADD1B2" rx="11" ry="11" style="stroke:#181818;stroke-width:1.0;"/><path d="M782.2188,652.5781 Q781.6406,652.875 781,653.0156 Q780.3594,653.1719 779.6563,653.1719 Q777.1563,653.1719 775.8281,651.5313 Q774.5156,649.875 774.5156,646.75 Q774.5156,643.625 775.8281,641.9688 Q777.1563,640.3125 779.6563,640.3125 Q780.3594,640.3125 781,640.4688 Q781.6563,640.625 782.2188,640.9219 L782.2188,643.6406 Q781.5938,643.0625 781,642.7969 Q780.4063,642.5156 779.7813,642.5156 Q778.4375,642.5156 777.75,643.5938 Q777.0625,644.6563 777.0625,646.75 Q777.0625,648.8438 777.75,649.9219 Q778.4375,650.9844 779.7813,650.9844 Q780.4063,650.9844 781,650.7188 Q781.5938,650.4375 782.2188,649.8594 L782.2188,652.5781 Z " fill="#000000"/><text fill="#000000" font-family="sans-serif" font-size="14" lengthAdjust="spacing" textLength="26" x="799.75" y="651.7842">Trip</text><line style="stroke:#000000;stroke-width:0.5;" x1="689" x2="904" y1="662.9375" y2="662.9375"/><rect fill="none" height="6" style="stroke:#C82930;stroke-width:1.0;" width="6" x="696" y="673.5859"/><text fill="#000000" font-family="sans-serif" font-size="14" lengthAdjust="spacing" textLength="83" x="708" y="679.9326">tripId: String</text><rect fill="none" height="6" style="stroke:#C82930;stroke-width:1.0;" width="6" x="696" y="689.8828"/><text fill="#000000" font-family="sans-serif" font-size="14" lengthAdjust="spacing" textLength="107" x="708" y="696.2295">vehicle: Vehicle</text><rect fill="none" height="6" style="stroke:#C82930;stroke-width:1.0;" width="6" x="696" y="706.1797"/><text fill="#000000" font-family="sans-serif" font-size="14" lengthAdjust="spacing" textLength="72" x="708" y="712.5264">user: User</text><rect fill="none" height="6" style="stroke:#C82930;stroke-width:1.0;" width="6" x="696" y="722.4766"/><text fill="#000000" font-family="sans-serif" font-size="14" lengthAdjust="spacing" textLength="107" x="708" y="728.8232">startTime: Date</text><rect fill="none" height="6" style="stroke:#C82930;stroke-width:1.0;" width="6" x="696" y="738.7734"/><text fill="#000000" font-family="sans-serif" font-size="14" lengthAdjust="spacing" textLength="103" x="708" y="745.1201">endTime: Date</text><rect fill="none" height="6" style="stroke:#C82930;stroke-width:1.0;" width="6" x="696" y="755.0703"/><text fill="#000000" font-family="sans-serif" font-size="14" lengthAdjust="spacing" textLength="116" x="708" y="761.417">distance: double</text><rect fill="none" height="6" style="stroke:#C82930;stroke-width:1.0;" width="6" x="696" y="771.3672"/><text fill="#000000" font-family="sans-serif" font-size="14" lengthAdjust="spacing" textLength="139" x="708" y="777.7139">amountDue: double</text><line style="stroke:#000000;stroke-width:0.5;" x1="689" x2="904" y1="785.0156" y2="785.0156"/><ellipse cx="699" cy="798.6641" fill="#84BE84" rx="3" ry="3" style="stroke:#038048;stroke-width:1.0;"/><text fill="#000000" font-family="sans-serif" font-size="14" lengthAdjust="spacing" textLength="104" x="708" y="802.0107">startTrip(): void</text><ellipse cx="699" cy="814.9609" fill="#84BE84" rx="3" ry="3" style="stroke:#038048;stroke-width:1.0;"/><text fill="#000000" font-family="sans-serif" font-size="14" lengthAdjust="spacing" textLength="100" x="708" y="818.3076">endTrip(): void</text><ellipse cx="699" cy="831.2578" fill="#84BE84" rx="3" ry="3" style="stroke:#038048;stroke-width:1.0;"/><text fill="#000000" font-family="sans-serif" font-size="14" lengthAdjust="spacing" textLength="169" x="708" y="834.6045">calculateDistance(): void</text><ellipse cx="699" cy="847.5547" fill="#84BE84" rx="3" ry="3" style="stroke:#038048;stroke-width:1.0;"/><text fill="#000000" font-family="sans-serif" font-size="14" lengthAdjust="spacing" textLength="191" x="708" y="850.9014">calculateAmountDue(): void</text></g><!--MD5=[764fca796ce7f635542948d8fc39db5e]
class Payment--><g id="elem_Payment"><rect codeLine="77" fill="#FFFFFF" height="129.4844" id="Payment" rx="2.5" ry="2.5" style="stroke:#000000;stroke-width:0.5;" width="261" x="7" y="679.9375"/><ellipse cx="103.25" cy="695.9375" fill="#ADD1B2" rx="11" ry="11" style="stroke:#181818;stroke-width:1.0;"/><path d="M106.2188,701.5781 Q105.6406,701.875 105,702.0156 Q104.3594,702.1719 103.6563,702.1719 Q101.1563,702.1719 99.8281,700.5313 Q98.5156,698.875 98.5156,695.75 Q98.5156,692.625 99.8281,690.9688 Q101.1563,689.3125 103.6563,689.3125 Q104.3594,689.3125 105,689.4688 Q105.6563,689.625 106.2188,689.9219 L106.2188,692.6406 Q105.5938,692.0625 105,691.7969 Q104.4063,691.5156 103.7813,691.5156 Q102.4375,691.5156 101.75,692.5938 Q101.0625,693.6563 101.0625,695.75 Q101.0625,697.8438 101.75,698.9219 Q102.4375,699.9844 103.7813,699.9844 Q104.4063,699.9844 105,699.7188 Q105.5938,699.4375 106.2188,698.8594 L106.2188,701.5781 Z " fill="#000000"/><text fill="#000000" font-family="sans-serif" font-size="14" lengthAdjust="spacing" textLength="60" x="123.75" y="700.7842">Payment</text><line style="stroke:#000000;stroke-width:0.5;" x1="8" x2="267" y1="711.9375" y2="711.9375"/><rect fill="none" height="6" style="stroke:#C82930;stroke-width:1.0;" width="6" x="15" y="722.5859"/><text fill="#000000" font-family="sans-serif" font-size="14" lengthAdjust="spacing" textLength="121" x="27" y="728.9326">paymentId: String</text><rect fill="none" height="6" style="stroke:#C82930;stroke-width:1.0;" width="6" x="15" y="738.8828"/><text fill="#000000" font-family="sans-serif" font-size="14" lengthAdjust="spacing" textLength="72" x="27" y="745.2295">user: User</text><rect fill="none" height="6" style="stroke:#C82930;stroke-width:1.0;" width="6" x="15" y="755.1797"/><text fill="#000000" font-family="sans-serif" font-size="14" lengthAdjust="spacing" textLength="110" x="27" y="761.5264">amount: double</text><rect fill="none" height="6" style="stroke:#C82930;stroke-width:1.0;" width="6" x="15" y="771.4766"/><text fill="#000000" font-family="sans-serif" font-size="14" lengthAdjust="spacing" textLength="235" x="27" y="777.8232">paymentMethod: PaymentMethod</text><line style="stroke:#000000;stroke-width:0.5;" x1="8" x2="267" y1="785.125" y2="785.125"/><ellipse cx="18" cy="798.7734" fill="#84BE84" rx="3" ry="3" style="stroke:#038048;stroke-width:1.0;"/><text fill="#000000" font-family="sans-serif" font-size="14" lengthAdjust="spacing" textLength="145" x="27" y="802.1201">makePayment(): void</text></g><!--MD5=[f6c77495e12a05eb94081b0ac09e8b1a]
class PaymentMethod--><g id="elem_PaymentMethod"><rect codeLine="85" fill="#FFFFFF" height="113.1875" id="PaymentMethod" rx="2.5" ry="2.5" style="stroke:#000000;stroke-width:0.5;" width="145" x="98" y="408.9375"/><ellipse cx="113" cy="424.9375" fill="#EB937F" rx="11" ry="11" style="stroke:#181818;stroke-width:1.0;"/><path d="M117.1094,430.9375 L109.3906,430.9375 L109.3906,418.5469 L117.1094,418.5469 L117.1094,420.7031 L111.8438,420.7031 L111.8438,423.375 L116.6094,423.375 L116.6094,425.5313 L111.8438,425.5313 L111.8438,428.7813 L117.1094,428.7813 L117.1094,430.9375 Z " fill="#000000"/><text fill="#000000" font-family="sans-serif" font-size="14" lengthAdjust="spacing" textLength="113" x="127" y="429.7842">PaymentMethod</text><line style="stroke:#000000;stroke-width:0.5;" x1="99" x2="242" y1="440.9375" y2="440.9375"/><text fill="#000000" font-family="sans-serif" font-size="14" lengthAdjust="spacing" textLength="80" x="104" y="457.9326">InAppWallet</text><text fill="#000000" font-family="sans-serif" font-size="14" lengthAdjust="spacing" textLength="22" x="104" y="474.2295">UPI</text><text fill="#000000" font-family="sans-serif" font-size="14" lengthAdjust="spacing" textLength="112" x="104" y="490.5264">SalaryDeduction</text><text fill="#000000" font-family="sans-serif" font-size="14" lengthAdjust="spacing" textLength="82" x="104" y="506.8232">FeeAddition</text><line style="stroke:#000000;stroke-width:0.5;" x1="99" x2="242" y1="514.125" y2="514.125"/></g><!--MD5=[1a502b0dbedafd291c48f46ef8646183]
class Feedback--><g id="elem_Feedback"><rect codeLine="92" fill="#FFFFFF" height="129.4844" id="Feedback" rx="2.5" ry="2.5" style="stroke:#000000;stroke-width:0.5;" width="192" x="940.5" y="679.9375"/><ellipse cx="998.25" cy="695.9375" fill="#ADD1B2" rx="11" ry="11" style="stroke:#181818;stroke-width:1.0;"/><path d="M1001.2188,701.5781 Q1000.6406,701.875 1000,702.0156 Q999.3594,702.1719 998.6563,702.1719 Q996.1563,702.1719 994.8281,700.5313 Q993.5156,698.875 993.5156,695.75 Q993.5156,692.625 994.8281,690.9688 Q996.1563,689.3125 998.6563,689.3125 Q999.3594,689.3125 1000,689.4688 Q1000.6563,689.625 1001.2188,689.9219 L1001.2188,692.6406 Q1000.5938,692.0625 1000,691.7969 Q999.4063,691.5156 998.7813,691.5156 Q997.4375,691.5156 996.75,692.5938 Q996.0625,693.6563 996.0625,695.75 Q996.0625,697.8438 996.75,698.9219 Q997.4375,699.9844 998.7813,699.9844 Q999.4063,699.9844 1000,699.7188 Q1000.5938,699.4375 1001.2188,698.8594 L1001.2188,701.5781 Z " fill="#000000"/><text fill="#000000" font-family="sans-serif" font-size="14" lengthAdjust="spacing" textLength="68" x="1018.75" y="700.7842">Feedback</text><line style="stroke:#000000;stroke-width:0.5;" x1="941.5" x2="1131.5" y1="711.9375" y2="711.9375"/><rect fill="none" height="6" style="stroke:#C82930;stroke-width:1.0;" width="6" x="948.5" y="722.5859"/><text fill="#000000" font-family="sans-serif" font-size="14" lengthAdjust="spacing" textLength="125" x="960.5" y="728.9326">feedbackId: String</text><rect fill="none" height="6" style="stroke:#C82930;stroke-width:1.0;" width="6" x="948.5" y="738.8828"/><text fill="#000000" font-family="sans-serif" font-size="14" lengthAdjust="spacing" textLength="72" x="960.5" y="745.2295">user: User</text><rect fill="none" height="6" style="stroke:#C82930;stroke-width:1.0;" width="6" x="948.5" y="755.1797"/><text fill="#000000" font-family="sans-serif" font-size="14" lengthAdjust="spacing" textLength="65" x="960.5" y="761.5264">rating: int</text><rect fill="none" height="6" style="stroke:#C82930;stroke-width:1.0;" width="6" x="948.5" y="771.4766"/><text fill="#000000" font-family="sans-serif" font-size="14" lengthAdjust="spacing" textLength="115" x="960.5" y="777.8232">comment: String</text><line style="stroke:#000000;stroke-width:0.5;" x1="941.5" x2="1131.5" y1="785.125" y2="785.125"/><ellipse cx="951.5" cy="798.7734" fill="#84BE84" rx="3" ry="3" style="stroke:#038048;stroke-width:1.0;"/><text fill="#000000" font-family="sans-serif" font-size="14" lengthAdjust="spacing" textLength="166" x="960.5" y="802.1201">provideFeedback(): void</text></g><!--MD5=[f20c5b0a292fe6303417e09101976b4a]
class SmartVehicleBookingSystem--><g id="elem_SmartVehicleBookingSystem"><rect codeLine="111" fill="#FFFFFF" height="243.5625" id="SmartVehicleBookingSystem" rx="2.5" ry="2.5" style="stroke:#000000;stroke-width:0.5;" width="622" x="651.5" y="55.9375"/><ellipse cx="859.25" cy="71.9375" fill="#ADD1B2" rx="11" ry="11" style="stroke:#181818;stroke-width:1.0;"/><path d="M862.2188,77.5781 Q861.6406,77.875 861,78.0156 Q860.3594,78.1719 859.6563,78.1719 Q857.1563,78.1719 855.8281,76.5313 Q854.5156,74.875 854.5156,71.75 Q854.5156,68.625 855.8281,66.9688 Q857.1563,65.3125 859.6563,65.3125 Q860.3594,65.3125 861,65.4688 Q861.6563,65.625 862.2188,65.9219 L862.2188,68.6406 Q861.5938,68.0625 861,67.7969 Q860.4063,67.5156 859.7813,67.5156 Q858.4375,67.5156 857.75,68.5938 Q857.0625,69.6563 857.0625,71.75 Q857.0625,73.8438 857.75,74.9219 Q858.4375,75.9844 859.7813,75.9844 Q860.4063,75.9844 861,75.7188 Q861.5938,75.4375 862.2188,74.8594 L862.2188,77.5781 Z " fill="#000000"/><text fill="#000000" font-family="sans-serif" font-size="14" lengthAdjust="spacing" textLength="198" x="879.75" y="76.7842">SmartVehicleBookingSystem</text><line style="stroke:#000000;stroke-width:0.5;" x1="652.5" x2="1272.5" y1="87.9375" y2="87.9375"/><rect fill="none" height="6" style="stroke:#C82930;stroke-width:1.0;" width="6" x="659.5" y="98.5859"/><text fill="#000000" font-family="sans-serif" font-size="14" lengthAdjust="spacing" textLength="127" x="671.5" y="104.9326">users: List&lt;User&gt;</text><rect fill="none" height="6" style="stroke:#C82930;stroke-width:1.0;" width="6" x="659.5" y="114.8828"/><text fill="#000000" font-family="sans-serif" font-size="14" lengthAdjust="spacing" textLength="162" x="671.5" y="121.2295">vehicles: List&lt;Vehicle&gt;</text><rect fill="none" height="6" style="stroke:#C82930;stroke-width:1.0;" width="6" x="659.5" y="131.1797"/><text fill="#000000" font-family="sans-serif" font-size="14" lengthAdjust="spacing" textLength="208" x="671.5" y="137.5264">parkingLots: List&lt;ParkingLot&gt;</text><rect fill="none" height="6" style="stroke:#C82930;stroke-width:1.0;" width="6" x="659.5" y="147.4766"/><text fill="#000000" font-family="sans-serif" font-size="14" lengthAdjust="spacing" textLength="112" x="671.5" y="153.8232">trips: List&lt;Trip&gt;</text><rect fill="none" height="6" style="stroke:#C82930;stroke-width:1.0;" width="6" x="659.5" y="163.7734"/><text fill="#000000" font-family="sans-serif" font-size="14" lengthAdjust="spacing" textLength="184" x="671.5" y="170.1201">payments: List&lt;Payment&gt;</text><rect fill="none" height="6" style="stroke:#C82930;stroke-width:1.0;" width="6" x="659.5" y="180.0703"/><text fill="#000000" font-family="sans-serif" font-size="14" lengthAdjust="spacing" textLength="196" x="671.5" y="186.417">feedbacks: List&lt;Feedback&gt;</text><line style="stroke:#000000;stroke-width:0.5;" x1="652.5" x2="1272.5" y1="193.7188" y2="193.7188"/><ellipse cx="662.5" cy="207.3672" fill="#84BE84" rx="3" ry="3" style="stroke:#038048;stroke-width:1.0;"/><text fill="#000000" font-family="sans-serif" font-size="14" lengthAdjust="spacing" textLength="204" x="671.5" y="210.7139">registerUser(user: User): void</text><ellipse cx="662.5" cy="223.6641" fill="#84BE84" rx="3" ry="3" style="stroke:#038048;stroke-width:1.0;"/><text fill="#000000" font-family="sans-serif" font-size="14" lengthAdjust="spacing" textLength="230" x="671.5" y="227.0107">addVehicle(vehicle: Vehicle): void</text><ellipse cx="662.5" cy="239.9609" fill="#84BE84" rx="3" ry="3" style="stroke:#038048;stroke-width:1.0;"/><text fill="#000000" font-family="sans-serif" font-size="14" lengthAdjust="spacing" textLength="298" x="671.5" y="243.3076">addParkingLot(parkingLot: ParkingLot): void</text><ellipse cx="662.5" cy="256.2578" fill="#84BE84" rx="3" ry="3" style="stroke:#038048;stroke-width:1.0;"/><text fill="#000000" font-family="sans-serif" font-size="14" lengthAdjust="spacing" textLength="304" x="671.5" y="259.6045">createTrip(user: User, vehicle: Vehicle): void</text><ellipse cx="662.5" cy="272.5547" fill="#84BE84" rx="3" ry="3" style="stroke:#038048;stroke-width:1.0;"/><text fill="#000000" font-family="sans-serif" font-size="14" lengthAdjust="spacing" textLength="596" x="671.5" y="275.9014">processPayment(user: User, amount: double, paymentMethod: PaymentMethod): void</text><ellipse cx="662.5" cy="288.8516" fill="#84BE84" rx="3" ry="3" style="stroke:#038048;stroke-width:1.0;"/><text fill="#000000" font-family="sans-serif" font-size="14" lengthAdjust="spacing" textLength="282" x="671.5" y="292.1982">addFeedback(feedback: Feedback): void</text></g><!--MD5=[c6100b592e29ab2a9436cfea8d37588a]
link User to Wallet--><g id="link_User_Wallet"><path codeLine="100" d="M571.24,571.1575 C542.44,609.6975 510.86,651.9575 486.19,684.9775 " fill="none" id="User-to-Wallet" style="stroke:#000000;stroke-width:1.0;"/><polygon fill="none" points="478.1,695.7975,484.8942,693.3811,485.2768,686.1801,478.4826,688.5966,478.1,695.7975" style="stroke:#000000;stroke-width:1.0;"/><text fill="#000000" font-family="sans-serif" font-size="13" lengthAdjust="spacing" textLength="8" x="557.7132" y="590.8369">1</text><text fill="#000000" font-family="sans-serif" font-size="13" lengthAdjust="spacing" textLength="8" x="474.5438" y="684.9867">1</text></g><!--MD5=[38e94e7d68a6af3eda73b702ca8442b1]
link User to Trip--><g id="link_User_Trip"><path codeLine="101" d="M692.67,571.1575 C700.65,586.8175 709.19,603.0875 717.83,619.0975 " fill="none" id="User-to-Trip" style="stroke:#000000;stroke-width:1.0;"/><polygon fill="none" points="724.12,630.7075,724.7748,623.5262,718.3978,620.1597,717.743,627.341,724.12,630.7075" style="stroke:#000000;stroke-width:1.0;"/><text fill="#000000" font-family="sans-serif" font-size="13" lengthAdjust="spacing" textLength="8" x="687.3017" y="590.8369">1</text><text fill="#000000" font-family="sans-serif" font-size="13" lengthAdjust="spacing" textLength="23" x="695.7464" y="620.0038">0..*</text></g><!--MD5=[d718f76ffeb44aeb2a8e81487c06a91d]
link Trip to User--><g id="link_Trip_User"><path codeLine="108" d="M749.96,630.7075 C741.82,614.8675 733.18,598.5575 724.52,582.6575 " fill="none" id="Trip-to-User" style="stroke:#000000;stroke-width:1.0;"/><polygon fill="none" points="718.21,571.1575,717.5942,578.3423,723.9895,581.674,724.6053,574.4893,718.21,571.1575" style="stroke:#000000;stroke-width:1.0;"/><text fill="#000000" font-family="sans-serif" font-size="13" lengthAdjust="spacing" textLength="8" x="738.7223" y="620.0038">1</text><text fill="#000000" font-family="sans-serif" font-size="13" lengthAdjust="spacing" textLength="8" x="714.5577" y="590.8369">1</text></g><!--MD5=[a9e799c50fea2e4c90a4624e82928424]
link User to Payment--><g id="link_User_Payment"><path codeLine="102" d="M492.17,521.7975 C421.63,550.8375 338.8,589.0575 268.5,630.9375 C248.15,643.0575 227.29,657.4775 208.31,671.8875 " fill="none" id="User-to-Payment" style="stroke:#000000;stroke-width:1.0;"/><polygon fill="none" points="197.97,679.8675,205.1632,679.36,207.4614,672.5249,200.2681,673.0324,197.97,679.8675" style="stroke:#000000;stroke-width:1.0;"/><text fill="#000000" font-family="sans-serif" font-size="13" lengthAdjust="spacing" textLength="8" x="476.3556" y="521.235">1</text><text fill="#000000" font-family="sans-serif" font-size="13" lengthAdjust="spacing" textLength="23" x="205.8417" y="669.0325">0..*</text></g><!--MD5=[eeefae10b5239a8561fbe623f90be913]
link Payment to User--><g id="link_Payment_User"><path codeLine="109" d="M231.59,679.8675 C254.56,662.8975 279.38,645.3075 303.5,630.9375 C359.26,597.7275 422.9,566.8075 480.33,540.9475 " fill="none" id="Payment-to-User" style="stroke:#000000;stroke-width:1.0;"/><polygon fill="none" points="492.49,535.5075,485.3793,534.3081,481.5373,540.4105,488.648,541.6099,492.49,535.5075" style="stroke:#000000;stroke-width:1.0;"/><text fill="#000000" font-family="sans-serif" font-size="13" lengthAdjust="spacing" textLength="8" x="233.4436" y="669.0325">1</text><text fill="#000000" font-family="sans-serif" font-size="13" lengthAdjust="spacing" textLength="8" x="476.6911" y="551.3357">1</text></g><!--MD5=[f3af3e4376504b99e4d7659058753524]
link User to Feedback--><g id="link_User_Feedback"><path codeLine="103" d="M806.76,552.5375 C845.78,576.2175 886.67,603.0975 922.5,630.9375 C937.99,642.9775 953.6,656.9175 968.09,670.8075 " fill="none" id="User-to-Feedback" style="stroke:#000000;stroke-width:1.0;"/><polygon fill="none" points="977.43,679.9075,975.9225,672.8557,968.8334,671.535,970.3409,678.5868,977.43,679.9075" style="stroke:#000000;stroke-width:1.0;"/><text fill="#000000" font-family="sans-serif" font-size="13" lengthAdjust="spacing" textLength="8" x="814.571" y="553.464">1</text><text fill="#000000" font-family="sans-serif" font-size="13" lengthAdjust="spacing" textLength="8" x="962.5317" y="669.0769">1</text></g><!--MD5=[8aac202c2d946692ae185377e66d0c1b]
link User to Vehicle--><g id="link_User_Vehicle"><path codeLine="104" d="M626.9,571.3275 C614.76,656.2575 612.44,774.9975 670.5,857.9375 C703.15,904.5775 758.65,932.4975 810.96,949.1575 " fill="none" id="User-to-Vehicle" style="stroke:#000000;stroke-width:1.0;"/><polygon fill="none" points="823.46,952.9475,818.8782,947.3791,811.9759,949.4667,816.5577,955.0351,823.46,952.9475" style="stroke:#000000;stroke-width:1.0;"/><text fill="#000000" font-family="sans-serif" font-size="13" lengthAdjust="spacing" textLength="8" x="617.1128" y="591.0183">1</text><text fill="#000000" font-family="sans-serif" font-size="13" lengthAdjust="spacing" textLength="23" x="792.5662" y="948.2462">0..*</text></g><!--MD5=[4e118f658a2ef8636f26115a7541c213]
link Vehicle to ParkingLot--><g id="link_Vehicle_ParkingLot"><path codeLine="106" d="M961.54,1031.1875 C966.7,1045.5475 972.48,1061.6375 978.41,1078.1475 " fill="none" id="Vehicle-to-ParkingLot" style="stroke:#000000;stroke-width:1.0;"/><polygon fill="none" points="982.97,1090.8175,984.7024,1083.8176,978.9072,1079.5262,977.1748,1086.5261,982.97,1090.8175" style="stroke:#000000;stroke-width:1.0;"/><text fill="#000000" font-family="sans-serif" font-size="13" lengthAdjust="spacing" textLength="8" x="955.4949" y="1051.0815">1</text><text fill="#000000" font-family="sans-serif" font-size="13" lengthAdjust="spacing" textLength="24" x="955.5861" y="1080.0031">0..1</text></g><!--MD5=[3c3fa7165103a40d1f8708954aba4d12]
link Trip to Vehicle--><g id="link_Trip_Vehicle"><path codeLine="107" d="M868.15,858.0975 C878.67,874.6375 889.21,891.2175 898.89,906.4375 " fill="none" id="Trip-to-Vehicle" style="stroke:#000000;stroke-width:1.0;"/><polygon fill="none" points="906.11,917.7875,906.2573,910.5779,899.659,907.669,899.5116,914.8786,906.11,917.7875" style="stroke:#000000;stroke-width:1.0;"/><text fill="#000000" font-family="sans-serif" font-size="13" lengthAdjust="spacing" textLength="8" x="864.6952" y="878.3004">1</text><text fill="#000000" font-family="sans-serif" font-size="13" lengthAdjust="spacing" textLength="8" x="893.3093" y="907.0328">1</text></g><!--MD5=[9eac371ae9bd91d6eff9e8ce2cd76c2a]
link SmartVehicleBookingSystem to User--><g id="link_SmartVehicleBookingSystem_User"><path codeLine="125" d="M829.76,300.0175 C811.26,316.8875 792.3,334.1775 773.96,350.9075 " fill="none" id="SmartVehicleBookingSystem-to-User" style="stroke:#000000;stroke-width:1.0;"/><polygon fill="none" points="764.14,359.8675,771.2693,358.7844,773.0115,351.7869,765.8822,352.87,764.14,359.8675" style="stroke:#000000;stroke-width:1.0;"/><text fill="#000000" font-family="sans-serif" font-size="13" lengthAdjust="spacing" textLength="8" x="813.8547" y="319.5922">1</text><text fill="#000000" font-family="sans-serif" font-size="13" lengthAdjust="spacing" textLength="23" x="748.392" y="348.9899">0..*</text></g><!--MD5=[98949996a8d26e7b8ad87f21db12715b]
link SmartVehicleBookingSystem to Vehicle--><g id="link_SmartVehicleBookingSystem_Vehicle"><path codeLine="126" d="M1049.88,300.1575 C1140.47,442.0675 1255.3,680.2875 1150.5,857.9375 C1132.3,888.7875 1102.59,911.9675 1071.2,929.1375 " fill="none" id="SmartVehicleBookingSystem-to-Vehicle" style="stroke:#000000;stroke-width:1.0;"/><polygon fill="none" points="1059.58,935.1975,1066.7497,935.9687,1070.2193,929.6472,1063.0495,928.8759,1059.58,935.1975" style="stroke:#000000;stroke-width:1.0;"/><text fill="#000000" font-family="sans-serif" font-size="13" lengthAdjust="spacing" textLength="8" x="1046.7004" y="319.7403">1</text><text fill="#000000" font-family="sans-serif" font-size="13" lengthAdjust="spacing" textLength="23" x="1067.4763" y="929.4145">0..*</text></g><!--MD5=[fe39ae3548c5ec8461c5d0e94b79231a]
link SmartVehicleBookingSystem to ParkingLot--><g id="link_SmartVehicleBookingSystem_ParkingLot"><path codeLine="127" d="M1113.45,300.0175 C1129.69,318.5775 1144.34,338.6875 1155.5,359.9375 C1212.16,467.7675 1187.36,509.4675 1196.5,630.9375 C1204.07,731.5375 1218.9,759.5675 1196.5,857.9375 C1178.94,935.0675 1142.37,1015.0075 1107.64,1079.3575 " fill="none" id="SmartVehicleBookingSystem-to-ParkingLot" style="stroke:#000000;stroke-width:1.0;"/><polygon fill="none" points="1101.4,1090.7775,1107.7853,1087.4267,1107.1481,1080.2438,1100.7628,1083.5946,1101.4,1090.7775" style="stroke:#000000;stroke-width:1.0;"/><text fill="#000000" font-family="sans-serif" font-size="13" lengthAdjust="spacing" textLength="8" x="1113.9455" y="319.5922">1</text><text fill="#000000" font-family="sans-serif" font-size="13" lengthAdjust="spacing" textLength="23" x="1082.2634" y="1079.9606">0..*</text></g><!--MD5=[26ac73ad903c0ba825c9aa0f4f1cc94f]
link SmartVehicleBookingSystem to Trip--><g id="link_SmartVehicleBookingSystem_Trip"><path codeLine="128" d="M926.89,300.0375 C899.31,393.8275 861.23,523.3175 833.34,618.1475 " fill="none" id="SmartVehicleBookingSystem-to-Trip" style="stroke:#000000;stroke-width:1.0;"/><polygon fill="none" points="829.65,630.6975,835.1767,626.0655,833.0267,619.1824,827.5,623.8144,829.65,630.6975" style="stroke:#000000;stroke-width:1.0;"/><text fill="#000000" font-family="sans-serif" font-size="13" lengthAdjust="spacing" textLength="8" x="916.6" y="319.6134">1</text><text fill="#000000" font-family="sans-serif" font-size="13" lengthAdjust="spacing" textLength="23" x="808.037" y="619.9932">0..*</text></g><!--MD5=[bb486575a0d6a60828838301f30d808f]
link SmartVehicleBookingSystem to Payment--><g id="link_SmartVehicleBookingSystem_Payment"><path codeLine="129" d="M651.39,268.4175 C590.32,293.0575 528.74,323.3475 475.5,359.9375 C410.75,404.4375 273.9,570.8175 195.64,669.2075 " fill="none" id="SmartVehicleBookingSystem-to-Payment" style="stroke:#000000;stroke-width:1.0;"/><polygon fill="none" points="187.33,679.6775,194.1933,677.4651,194.7909,670.2788,187.9276,672.4912,187.33,679.6775" style="stroke:#000000;stroke-width:1.0;"/><text fill="#000000" font-family="sans-serif" font-size="13" lengthAdjust="spacing" textLength="8" x="635.0199" y="267.6961">1</text><text fill="#000000" font-family="sans-serif" font-size="13" lengthAdjust="spacing" textLength="23" x="168.5223" y="668.8217">0..*</text></g><!--MD5=[357b373b1dedd651f266f81378518317]
link SmartVehicleBookingSystem to Feedback--><g id="link_SmartVehicleBookingSystem_Feedback"><path codeLine="130" d="M978.37,300.0375 C992.94,411.1575 1014.08,572.3875 1026.44,666.7175 " fill="none" id="SmartVehicleBookingSystem-to-Feedback" style="stroke:#000000;stroke-width:1.0;"/><polygon fill="none" points="1028.17,679.8575,1031.3588,673.3898,1026.6151,667.9587,1023.4263,674.4264,1028.17,679.8575" style="stroke:#000000;stroke-width:1.0;"/><text fill="#000000" font-family="sans-serif" font-size="13" lengthAdjust="spacing" textLength="8" x="971.0562" y="319.6134">1</text><text fill="#000000" font-family="sans-serif" font-size="13" lengthAdjust="spacing" textLength="23" x="1003.0011" y="669.0214">0..*</text></g><!--MD5=[1cb9953d6b35b4be2a75df41643d00ee]
@startuml Assignment-1_2020900023_1
skinparam class {
  BackgroundColor #FFFFFF
  BorderColor #000000
  ArrowColor #000000
  FontColor #000000
}

title <size:24><b>Smart Vehicle Booking System - Class Diagram By Vilal Ali</b></size>

class User {
  - userId: String
  - name: String
  - email: String
  - password: String
  - userType: UserType
  - wallet: Wallet
  + createAccount(): void
  + uploadId(): void
  + addMoneyToWallet(amount: double): void
  + viewTripHistory(): void
}

class Wallet {
  - balance: double
  + addMoney(amount: double): void
  + deductMoney(amount: double): void
}

enum UserType {
  Student
  Staff
  Teacher
}

class Vehicle {
  - vehicleId: String
  - vehicleType: VehicleType
  + getVehicleId(): String
  + getVehicleType(): VehicleType
}

enum VehicleType {
  Bike
  Bicycle
  Moped
}

class ParkingLot {
  - parkingLotId: String
  - capacity: int
  - availability: int
  - location: String
  - maintenanceStatus: String
  - securityFeatures: String
  + getParkingLotId(): String
  + getCapacity(): int
  + getAvailability(): int
  + getLocation(): String
  + getMaintenanceStatus(): String
  + getSecurityFeatures(): String
}

class Trip {
  - tripId: String
  - vehicle: Vehicle
  - user: User
  - startTime: Date
  - endTime: Date
  - distance: double
  - amountDue: double
  + startTrip(): void
  + endTrip(): void
  + calculateDistance(): void
  + calculateAmountDue(): void
}

class Payment {
  - paymentId: String
  - user: User
  - amount: double
  - paymentMethod: PaymentMethod
  + makePayment(): void
}

enum PaymentMethod {
  InAppWallet
  UPI
  SalaryDeduction
  FeeAddition
}

class Feedback {
  - feedbackId: String
  - user: User
  - rating: int
  - comment: String
  + provideFeedback(): void
}

User "1" - -o "1" Wallet
User "1" - -o "0..*" Trip
User "1" - -o "0..*" Payment
User "1" - -o "1" Feedback
User "1" - -o "0..*" Vehicle

Vehicle "1" - -o "0..1" ParkingLot
Trip "1" - -o "1" Vehicle
Trip "1" - -o "1" User
Payment "1" - -o "1" User

class SmartVehicleBookingSystem {
  - users: List<User>
  - vehicles: List<Vehicle>
  - parkingLots: List<ParkingLot>
  - trips: List<Trip>
  - payments: List<Payment>
  - feedbacks: List<Feedback>
  + registerUser(user: User): void
  + addVehicle(vehicle: Vehicle): void
  + addParkingLot(parkingLot: ParkingLot): void
  + createTrip(user: User, vehicle: Vehicle): void
  + processPayment(user: User, amount: double, paymentMethod: PaymentMethod): void
  + addFeedback(feedback: Feedback): void
}
SmartVehicleBookingSystem "1" - -o "0..*" User
SmartVehicleBookingSystem "1" - -o "0..*" Vehicle
SmartVehicleBookingSystem "1" - -o "0..*" ParkingLot
SmartVehicleBookingSystem "1" - -o "0..*" Trip
SmartVehicleBookingSystem "1" - -o "0..*" Payment
SmartVehicleBookingSystem "1" - -o "0..*" Feedback

@enduml

PlantUML version 1.2022.7(Mon Aug 22 22:31:30 IST 2022)
(GPL source distribution)
Java Runtime: OpenJDK Runtime Environment
JVM: OpenJDK 64-Bit Server VM
Default Encoding: UTF-8
Language: en
Country: IN
--></g></svg>